<svg xmlns="http://www.w3.org/2000/svg" xmlns:xlink="http://www.w3.org/1999/xlink" viewBox="0 0 256.95 262.44"><defs><style>.a{fill:#b3b3b3;}.b{fill:#0f303f;}.c{fill:#fff;}.d{fill:#19b0bf;}.e{fill:#1895a4;}.f{fill:#f05661;}.g{fill:#e51f4d;}.h{fill:#464e5c;}.i{fill:url(#a);}.j{fill:#e4e4e4;}.k{fill:#abb2bb;}.l{fill:url(#b);}.m{fill:#dc4226;}</style><linearGradient id="a" x1="186.76" y1="158.02" x2="186.76" y2="153.81" gradientUnits="userSpaceOnUse"><stop offset="0" stop-color="#e9e9e9"/><stop offset="1" stop-color="#fff"/></linearGradient><linearGradient id="b" x1="163.53" y1="8.89" x2="163.53" y2="0.22" xlink:href="#a"/></defs><title>mob</title><path class="a" d="M155.72,256.93a0.83,0.83,0,0,1,0-1.65c1.66,0,3.35-.06,5-0.17a0.77,0.77,0,0,1,.76.78,0.79,0.79,0,0,1-.68.87c-1.69.11-3.4,0.17-5.09,0.18h0Zm-5-.13h0c-1.69-.1-3.4-0.25-5.07-0.44a0.8,0.8,0,0,1-.64-0.91,0.75,0.75,0,0,1,.79-0.74c1.65,0.2,3.33.34,5,.44a0.79,0.79,0,0,1,.68.87,0.77,0.77,0,0,1-.72.79h0Zm15.13-.53a0.76,0.76,0,0,1-.72-0.74,0.81,0.81,0,0,1,.64-0.91c1.66-.21,3.33-0.48,5-0.79a0.74,0.74,0,0,1,.83.68,0.82,0.82,0,0,1-.59,1c-1.66.32-3.36,0.58-5,.8H165.8Zm-25.17-.66h-0.11c-1.67-.3-3.35-0.66-5-1.07a0.83,0.83,0,0,1-.55-1,0.73,0.73,0,0,1,.86-0.63c1.62,0.4,3.28.75,4.93,1.05a0.82,0.82,0,0,1,.6.95,0.76,0.76,0,0,1-.71.7h0Zm35.13-1.23a0.75,0.75,0,0,1-.7-0.65,0.83,0.83,0,0,1,.55-1c1.63-.41,3.26-0.89,4.86-1.4a0.71,0.71,0,0,1,.89.57,0.85,0.85,0,0,1-.5,1c-1.62.52-3.29,1-4.94,1.42l-0.16,0h0Zm-45-1.19a0.63,0.63,0,0,1-.19,0c-1.63-.51-3.27-1.07-4.87-1.68a0.86,0.86,0,0,1-.46-1,0.71,0.71,0,0,1,.91-0.52c1.58,0.6,3.19,1.16,4.8,1.66a0.85,0.85,0,0,1,.51,1,0.75,0.75,0,0,1-.7.61h0Zm54.73-1.93a0.74,0.74,0,0,1-.68-0.56,0.86,0.86,0,0,1,.45-1c1.58-.61,3.16-1.28,4.7-2a0.7,0.7,0,0,1,.94.46,0.87,0.87,0,0,1-.4,1.07c-1.56.72-3.17,1.4-4.77,2a0.63,0.63,0,0,1-.23,0h0Zm-64.32-1.71a0.64,0.64,0,0,1-.26-0.06c-1.57-.71-3.15-1.48-4.69-2.28a0.88,0.88,0,0,1-.36-1.1,0.69,0.69,0,0,1,1-.41c1.52,0.8,3.07,1.55,4.62,2.25a0.87,0.87,0,0,1,.41,1.07,0.73,0.73,0,0,1-.67.52h0Zm73.68-2.6a0.72,0.72,0,0,1-.65-0.48,0.88,0.88,0,0,1,.35-1.1c1.5-.8,3-1.66,4.47-2.56a0.68,0.68,0,0,1,1,.34,0.89,0.89,0,0,1-.3,1.12c-1.49.91-3,1.79-4.55,2.6a0.65,0.65,0,0,1-.31.08h0ZM112,244.73a0.65,0.65,0,0,1-.34-0.09c-1.5-.9-3-1.86-4.44-2.85a0.89,0.89,0,0,1-.25-1.13,0.67,0.67,0,0,1,1-.29c1.43,1,2.9,1.92,4.38,2.81a0.89,0.89,0,0,1,.3,1.12,0.71,0.71,0,0,1-.64.44h0Zm91.77-3.22a0.71,0.71,0,0,1-.62-0.4,0.9,0.9,0,0,1,.24-1.14c1.42-1,2.84-2,4.21-3.1a0.67,0.67,0,0,1,1,.22,0.9,0.9,0,0,1-.19,1.15c-1.39,1.09-2.83,2.15-4.28,3.15a0.66,0.66,0,0,1-.37.12h0ZM103.28,238.8a0.65,0.65,0,0,1-.4-0.14c-1.4-1.08-2.8-2.21-4.15-3.38a0.91,0.91,0,0,1-.14-1.16,0.66,0.66,0,0,1,1-.16c1.33,1.15,2.71,2.27,4.08,3.33a0.9,0.9,0,0,1,.2,1.15,0.7,0.7,0,0,1-.6.36h0ZM212.07,235a0.7,0.7,0,0,1-.58-0.32,0.91,0.91,0,0,1,.14-1.16c1.32-1.16,2.63-2.37,3.9-3.6a0.66,0.66,0,0,1,1,.09,0.91,0.91,0,0,1-.08,1.17c-1.29,1.25-2.62,2.49-4,3.66a0.66,0.66,0,0,1-.44.17h0ZM95.22,231.84a0.67,0.67,0,0,1-.46-0.19c-1.29-1.25-2.57-2.55-3.81-3.87a0.91,0.91,0,0,1,0-1.17,0.66,0.66,0,0,1,1,0c1.21,1.3,2.47,2.58,3.75,3.81a0.91,0.91,0,0,1,.09,1.16,0.69,0.69,0,0,1-.55.3h0Zm124.54-4.34a0.68,0.68,0,0,1-.52-0.26,0.91,0.91,0,0,1,0-1.17c1.21-1.31,2.4-2.68,3.54-4.06a0.66,0.66,0,0,1,1,0,0.91,0.91,0,0,1,0,1.17c-1.16,1.41-2.37,2.79-3.59,4.13a0.67,0.67,0,0,1-.5.23h0Zm-131.9-3.57a0.68,0.68,0,0,1-.52-0.25c-1.17-1.4-2.32-2.85-3.42-4.31A0.91,0.91,0,0,1,84,218.2a0.66,0.66,0,0,1,1,.09c1.08,1.44,2.21,2.87,3.37,4.25a0.91,0.91,0,0,1,0,1.17,0.67,0.67,0,0,1-.5.23h0Zm138.84-4.84a0.66,0.66,0,0,1-.47-0.2,0.91,0.91,0,0,1-.08-1.16c1.07-1.45,2.13-3,3.14-4.47a0.66,0.66,0,0,1,1-.16,0.91,0.91,0,0,1,.14,1.16c-1,1.55-2.1,3.07-3.19,4.54a0.69,0.69,0,0,1-.55.29h0ZM81.27,215.18a0.69,0.69,0,0,1-.57-0.32c-1-1.53-2-3.12-3-4.71a0.9,0.9,0,0,1,.19-1.15,0.66,0.66,0,0,1,1,.21c0.94,1.56,1.93,3.12,2.95,4.63a0.91,0.91,0,0,1-.13,1.16,0.66,0.66,0,0,1-.44.17h0Zm151.53-5.29a0.66,0.66,0,0,1-.4-0.14,0.9,0.9,0,0,1-.19-1.15c0.94-1.58,1.84-3.21,2.7-4.84a0.67,0.67,0,0,1,1-.28,0.9,0.9,0,0,1,.25,1.13c-0.87,1.66-1.79,3.31-2.74,4.91a0.7,0.7,0,0,1-.6.36h0ZM75.55,205.66a0.7,0.7,0,0,1-.62-0.4c-0.88-1.65-1.73-3.35-2.53-5a0.89,0.89,0,0,1,.29-1.12,0.68,0.68,0,0,1,1,.33c0.79,1.67,1.63,3.35,2.49,5a0.9,0.9,0,0,1-.24,1.14,0.65,0.65,0,0,1-.38.12h0ZM238,200a0.64,0.64,0,0,1-.34-0.1,0.89,0.89,0,0,1-.3-1.12c0.78-1.68,1.53-3.41,2.23-5.15a0.68,0.68,0,0,1,1-.4,0.88,0.88,0,0,1,.35,1.1c-0.71,1.76-1.47,3.52-2.26,5.23a0.72,0.72,0,0,1-.64.44h0ZM70.76,195.5a0.72,0.72,0,0,1-.65-0.47c-0.72-1.74-1.4-3.53-2-5.33a0.87,0.87,0,0,1,.4-1.08,0.69,0.69,0,0,1,.94.45c0.63,1.76,1.3,3.53,2,5.24a0.88,0.88,0,0,1-.35,1.1,0.64,0.64,0,0,1-.31.08h0Zm171.49-6a0.64,0.64,0,0,1-.27-0.06,0.87,0.87,0,0,1-.4-1.07c0.62-1.78,1.2-3.6,1.73-5.4a0.7,0.7,0,0,1,.91-0.52,0.86,0.86,0,0,1,.45,1c-0.54,1.83-1.13,3.67-1.75,5.48a0.73,0.73,0,0,1-.67.52h0ZM67,184.8a0.74,0.74,0,0,1-.68-0.56c-0.55-1.83-1.06-3.7-1.53-5.56a0.85,0.85,0,0,1,.5-1,0.72,0.72,0,0,1,.89.57c0.45,1.83,1,3.67,1.5,5.47a0.86,0.86,0,0,1-.45,1.05,0.64,0.64,0,0,1-.24,0h0Zm178.51-6.3a0.63,0.63,0,0,1-.19,0,0.85,0.85,0,0,1-.5-1c0.44-1.84.85-3.72,1.2-5.57a0.73,0.73,0,0,1,.86-0.63,0.83,0.83,0,0,1,.55,1c-0.36,1.88-.77,3.79-1.22,5.66a0.75,0.75,0,0,1-.7.61h0ZM64.2,173.69a0.75,0.75,0,0,1-.7-0.64c-0.37-1.89-.71-3.81-1-5.71a0.82,0.82,0,0,1,.59-1,0.74,0.74,0,0,1,.83.68c0.28,1.87.6,3.77,1,5.63a0.84,0.84,0,0,1-.55,1l-0.16,0h0Zm183.43-6.48h-0.12a0.82,0.82,0,0,1-.6-0.95c0.27-1.88.49-3.79,0.67-5.68a0.75,0.75,0,0,1,.79-0.73,0.81,0.81,0,0,1,.64.91c-0.18,1.92-.41,3.86-0.68,5.77a0.76,0.76,0,0,1-.71.69h0ZM62.51,162.3a0.76,0.76,0,0,1-.72-0.73c-0.19-1.92-.34-3.87-0.44-5.8a0.79,0.79,0,0,1,.68-0.87,0.78,0.78,0,0,1,.76.77c0.1,1.9.25,3.82,0.44,5.71a0.81,0.81,0,0,1-.63.91H62.51Zm186.2-6.57h0a0.79,0.79,0,0,1-.68-0.87c0.09-1.9.13-3.82,0.13-5.73q0-.82,0-1.62a0.78,0.78,0,0,1,.71-0.84,0.79,0.79,0,0,1,.73.81c0,0.55,0,1.1,0,1.65,0,1.94,0,3.9-.13,5.82a0.77,0.77,0,0,1-.72.78h0Zm-186.81-5a0.78,0.78,0,0,1-.72-0.82v-0.82c0-1.66,0-3.34.1-5a0.73,0.73,0,1,1,1.44.08c-0.07,1.64-.1,3.3-0.1,4.93v0.81a0.78,0.78,0,0,1-.72.83h0Zm186.72-8.23a0.77,0.77,0,0,1-.72-0.77c-0.11-1.9-.27-3.82-0.47-5.71a0.81,0.81,0,0,1,.63-0.92,0.75,0.75,0,0,1,.8.72c0.21,1.92.37,3.87,0.48,5.8a0.8,0.8,0,0,1-.67.88h-0.05ZM62.35,139.22H62.28a0.8,0.8,0,0,1-.65-0.9c0.17-1.92.38-3.87,0.64-5.78a0.74,0.74,0,0,1,.82-0.69,0.82,0.82,0,0,1,.6.94c-0.25,1.88-.47,3.8-0.63,5.69a0.77,0.77,0,0,1-.72.75h0Zm185-8.16a0.76,0.76,0,0,1-.71-0.68c-0.29-1.88-.63-3.76-1-5.62a0.84,0.84,0,0,1,.54-1,0.72,0.72,0,0,1,.87.62c0.39,1.88.73,3.8,1,5.71a0.83,0.83,0,0,1-.58,1h-0.13ZM63.9,127.8l-0.15,0a0.83,0.83,0,0,1-.56-1c0.35-1.89.75-3.8,1.18-5.67a0.72,0.72,0,0,1,.88-0.58,0.85,0.85,0,0,1,.51,1c-0.43,1.84-.82,3.72-1.17,5.58a0.75,0.75,0,0,1-.71.66h0Zm181.18-8a0.74,0.74,0,0,1-.69-0.6c-0.46-1.82-1-3.65-1.54-5.46a0.86,0.86,0,0,1,.44-1.05,0.7,0.7,0,0,1,.92.5c0.57,1.83,1.09,3.7,1.56,5.54a0.85,0.85,0,0,1-.49,1,0.64,0.64,0,0,1-.2,0h0ZM66.51,116.63a0.64,0.64,0,0,1-.22,0,0.86,0.86,0,0,1-.46-1c0.53-1.85,1.11-3.7,1.72-5.5a0.7,0.7,0,0,1,.93-0.47,0.87,0.87,0,0,1,.41,1.07c-0.6,1.77-1.17,3.59-1.69,5.41a0.74,0.74,0,0,1-.69.57h0Zm175.21-7.71a0.73,0.73,0,0,1-.67-0.51c-0.64-1.75-1.32-3.51-2-5.23a0.88,0.88,0,0,1,.34-1.1,0.68,0.68,0,0,1,1,.39c0.73,1.74,1.43,3.53,2.08,5.31a0.87,0.87,0,0,1-.39,1.08,0.64,0.64,0,0,1-.28.06h0ZM70.18,105.84a0.64,0.64,0,0,1-.3-0.07,0.88,0.88,0,0,1-.36-1.09c0.7-1.76,1.45-3.53,2.23-5.25a0.68,0.68,0,0,1,1-.35,0.89,0.89,0,0,1,.31,1.11c-0.77,1.69-1.51,3.43-2.19,5.17a0.72,0.72,0,0,1-.66.48h0Zm167.18-7.32a0.71,0.71,0,0,1-.63-0.43c-0.8-1.67-1.65-3.33-2.53-4.95a0.9,0.9,0,0,1,.23-1.14,0.67,0.67,0,0,1,1,.27c0.89,1.64,1.75,3.33,2.57,5a0.89,0.89,0,0,1-.28,1.12,0.65,0.65,0,0,1-.35.1h0Zm-162.51-3a0.65,0.65,0,0,1-.37-0.11,0.9,0.9,0,0,1-.25-1.13C75.08,92.67,76,91,76.93,89.39a0.67,0.67,0,0,1,1-.23,0.9,0.9,0,0,1,.2,1.15c-0.93,1.59-1.82,3.23-2.67,4.86a0.71,0.71,0,0,1-.62.4h0ZM232,88.72a0.7,0.7,0,0,1-.59-0.35c-1-1.56-2-3.11-3-4.61a0.91,0.91,0,0,1,.12-1.16,0.66,0.66,0,0,1,1,.14c1,1.52,2.06,3.09,3,4.68a0.91,0.91,0,0,1-.18,1.15,0.66,0.66,0,0,1-.41.15h0ZM80.45,85.95A0.66,0.66,0,0,1,80,85.78a0.91,0.91,0,0,1-.15-1.16c1-1.55,2.07-3.09,3.16-4.57a0.66,0.66,0,0,1,1-.1,0.91,0.91,0,0,1,.09,1.16c-1.07,1.46-2.11,3-3.11,4.5a0.69,0.69,0,0,1-.58.33h0Zm145.36-6.33a0.68,0.68,0,0,1-.54-0.28c-1.1-1.44-2.24-2.86-3.4-4.22a0.91,0.91,0,0,1,0-1.17,0.66,0.66,0,0,1,1,0c1.17,1.38,2.33,2.82,3.45,4.28a0.91,0.91,0,0,1-.07,1.17,0.67,0.67,0,0,1-.47.2h0ZM86.92,77.07a0.67,0.67,0,0,1-.49-0.22,0.91,0.91,0,0,1,0-1.17c1.15-1.41,2.35-2.81,3.56-4.16a0.66,0.66,0,0,1,1,0,0.91,0.91,0,0,1,0,1.17c-1.2,1.33-2.38,2.7-3.51,4.09a0.68,0.68,0,0,1-.53.26h0Zm131.85-5.74a0.67,0.67,0,0,1-.49-0.22c-1.22-1.29-2.49-2.56-3.77-3.78a0.91,0.91,0,0,1-.1-1.16,0.66,0.66,0,0,1,1-.11c1.3,1.24,2.59,2.53,3.83,3.84a0.91,0.91,0,0,1,0,1.17,0.68,0.68,0,0,1-.53.27h0ZM94.19,69a0.68,0.68,0,0,1-.55-0.28,0.91,0.91,0,0,1,.07-1.17c1.28-1.27,2.6-2.51,3.93-3.69a0.66,0.66,0,0,1,1,.15,0.91,0.91,0,0,1-.13,1.16c-1.31,1.17-2.62,2.39-3.87,3.64a0.67,0.67,0,0,1-.47.2h0ZM211,64a0.67,0.67,0,0,1-.43-0.16c-1.34-1.14-2.72-2.25-4.11-3.29a0.9,0.9,0,0,1-.2-1.14,0.67,0.67,0,0,1,1-.23c1.41,1.07,2.81,2.19,4.17,3.35a0.91,0.91,0,0,1,.15,1.15A0.7,0.7,0,0,1,211,64h0ZM102.16,62a0.7,0.7,0,0,1-.59-0.36,0.9,0.9,0,0,1,.18-1.15c1.39-1.1,2.82-2.18,4.26-3.19a0.67,0.67,0,0,1,1,.27,0.9,0.9,0,0,1-.24,1.14c-1.41,1-2.82,2.05-4.19,3.14a0.66,0.66,0,0,1-.41.15h0Zm100.4-4.39a0.65,0.65,0,0,1-.36-0.11c-1.44-1-2.92-1.9-4.4-2.77a0.89,0.89,0,0,1-.31-1.11,0.68,0.68,0,0,1,1-.36c1.5,0.89,3,1.83,4.47,2.81a0.89,0.89,0,0,1,.26,1.13,0.71,0.71,0,0,1-.62.41h0Zm-91.81-1.67a0.71,0.71,0,0,1-.63-0.43,0.89,0.89,0,0,1,.29-1.12c1.49-.93,3-1.82,4.53-2.64a0.68,0.68,0,0,1,1,.39,0.88,0.88,0,0,1-.34,1.1c-1.49.81-3,1.69-4.46,2.6a0.64,0.64,0,0,1-.35.1h0Zm82.83-3.63a0.65,0.65,0,0,1-.29-0.07c-1.52-.78-3.08-1.52-4.64-2.21a0.87,0.87,0,0,1-.41-1.07,0.7,0.7,0,0,1,.93-0.47c1.58,0.7,3.16,1.45,4.71,2.24a0.88,0.88,0,0,1,.36,1.09,0.72,0.72,0,0,1-.66.49h0Zm-73.72-1.33a0.73,0.73,0,0,1-.67-0.51,0.87,0.87,0,0,1,.39-1.08c1.56-.74,3.16-1.43,4.76-2.07a0.7,0.7,0,0,1,.92.51,0.86,0.86,0,0,1-.44,1.05c-1.57.63-3.15,1.31-4.68,2a0.64,0.64,0,0,1-.27.06h0Zm64.28-2.83a0.64,0.64,0,0,1-.22,0c-1.58-.59-3.2-1.13-4.81-1.61a0.84,0.84,0,0,1-.51-1,0.72,0.72,0,0,1,.88-0.59c1.63,0.49,3.27,1,4.88,1.64a0.86,0.86,0,0,1,.47,1,0.74,0.74,0,0,1-.69.57h0Zm-54.75-1a0.74,0.74,0,0,1-.69-0.6,0.85,0.85,0,0,1,.49-1c1.62-.54,3.28-1,4.93-1.46a0.72,0.72,0,0,1,.87.62,0.84,0.84,0,0,1-.54,1c-1.62.43-3.25,0.91-4.85,1.44a0.63,0.63,0,0,1-.2,0h0Zm45-2-0.15,0c-1.63-.38-3.29-0.72-4.93-1a0.82,0.82,0,0,1-.61-0.94,0.74,0.74,0,0,1,.82-0.69c1.67,0.29,3.36.63,5,1a0.83,0.83,0,0,1,.56,1,0.75,0.75,0,0,1-.71.66h0Zm-35.15-.62a0.76,0.76,0,0,1-.71-0.69,0.82,0.82,0,0,1,.59-1c1.66-.33,3.36-0.61,5-0.84a0.75,0.75,0,0,1,.8.72,0.81,0.81,0,0,1-.63.92c-1.65.23-3.32,0.5-5,.83h-0.12Zm25.16-1.1h-0.07c-1.65-.18-3.33-0.31-5-0.39a0.79,0.79,0,0,1-.69-0.86,0.77,0.77,0,0,1,.75-0.79c1.69,0.08,3.4.21,5.08,0.4a0.8,0.8,0,0,1,.65.9,0.77,0.77,0,0,1-.72.75h0Zm-15.14-.27a0.77,0.77,0,0,1-.72-0.77,0.8,0.8,0,0,1,.67-0.88c1.68-.12,3.39-0.2,5.08-0.22h0a0.83,0.83,0,0,1,0,1.65c-1.67,0-3.35.09-5,.22h0Z" transform="translate(-18.31 -13.01)"/><path class="a" d="M90.75,239H89.38a0.87,0.87,0,0,1-.76-0.63l-0.26-.71a1.1,1.1,0,0,1,.15-1.06l1-1.11a0.73,0.73,0,0,0,0-.94L88,232.88a0.53,0.53,0,0,0-.82,0l-1,1.11a0.78,0.78,0,0,1-.93.17l-0.62-.29A1,1,0,0,1,84.1,233v-1.57a0.63,0.63,0,0,0-.58-0.66H81.4a0.62,0.62,0,0,0-.58.66V233a1,1,0,0,1-.55.87l-0.62.29a0.78,0.78,0,0,1-.93-0.17l-1-1.11a0.53,0.53,0,0,0-.82,0l-1.5,1.72a0.73,0.73,0,0,0,0,.94l1,1.11a1.09,1.09,0,0,1,.15,1.06l-0.25.71a0.88,0.88,0,0,1-.76.63H74.17a0.63,0.63,0,0,0-.58.66v2.43a0.63,0.63,0,0,0,.58.66h1.37a0.88,0.88,0,0,1,.76.63l0.25,0.71a1.09,1.09,0,0,1-.15,1.06l-1,1.11a0.73,0.73,0,0,0,0,.94l1.5,1.72a0.53,0.53,0,0,0,.82,0l1-1.11a0.78,0.78,0,0,1,.93-0.17L80.27,248a1,1,0,0,1,.55.87v1.57a0.62,0.62,0,0,0,.58.66h2.12a0.63,0.63,0,0,0,.58-0.66v-1.57a1,1,0,0,1,.55-0.87l0.62-.29a0.78,0.78,0,0,1,.93.17l1,1.11a0.53,0.53,0,0,0,.82,0l1.5-1.72a0.73,0.73,0,0,0,0-.94l-1-1.11a1.1,1.1,0,0,1-.15-1.06l0.26-.71a0.87,0.87,0,0,1,.76-0.63h1.37a0.63,0.63,0,0,0,.58-0.66V239.7A0.63,0.63,0,0,0,90.75,239Zm-8.29,5.08a3.23,3.23,0,1,1,2.8-3.2A3,3,0,0,1,82.46,244.12Z" transform="translate(-18.31 -13.01)"/><path class="b" d="M187.77,79.24H127.21c-7.34,0-13.28,6.82-13.28,15.2V260.26c0,8.39,5.95,15.19,13.28,15.19h60.55c7.33,0,13.27-6.81,13.27-15.19V94.44C201,86.06,195.1,79.24,187.77,79.24Z" transform="translate(-18.31 -13.01)"/><path class="c" d="M146.07,91H168.9a1.35,1.35,0,0,1,0,2.67H146.07A1.35,1.35,0,0,1,146.07,91Z" transform="translate(-18.31 -13.01)"/><path class="c" d="M157.48,264.26c-4.24,0-7.68-3.95-7.68-8.8s3.44-8.79,7.68-8.79,7.69,3.93,7.69,8.79S161.74,264.26,157.48,264.26Z" transform="translate(-18.31 -13.01)"/><rect class="d" x="101.45" y="96.1" width="75.46" height="127.96"/><polygon class="e" points="101.45 224.06 176.91 224.06 176.91 96.1 101.45 224.06"/><path class="b" d="M157.48,249.36c-2.94,0-5.33,2.74-5.33,6.1s2.39,6.11,5.33,6.11,5.33-2.74,5.33-6.11S160.43,249.36,157.48,249.36Z" transform="translate(-18.31 -13.01)"/><rect class="f" x="119.94" y="144.77" width="117.55" height="22.28"/><rect class="g" x="218.02" y="144.77" width="19.47" height="22.28"/><rect class="g" x="119.94" y="144.77" width="19.47" height="22.28"/><rect class="h" x="153.64" y="154.57" width="58.15" height="2.7"/><rect class="d" x="153.64" y="154.57" width="32.79" height="2.7"/><ellipse class="i" cx="186.76" cy="155.91" rx="1.84" ry="2.1"/><path class="j" d="M205.06,171.13a2.23,2.23,0,1,1,1.93-2.21,2.08,2.08,0,0,1-1.93,2.21h0Zm0-4.2a2,2,0,1,0,1.74,2,1.89,1.89,0,0,0-1.74-2h0Z" transform="translate(-18.31 -13.01)"/><ellipse class="c" cx="129.33" cy="155.91" rx="4.59" ry="5.26"/><polygon class="g" points="131.69 155.91 129.89 157.1 128.09 158.29 128.09 155.91 128.09 153.54 129.89 154.72 131.69 155.91"/><path class="c" d="M162.86,167.28a0.86,0.86,0,0,1,.34.06,0.71,0.71,0,0,1,.26.18,0.78,0.78,0,0,1,.17.27,1,1,0,0,1,.06.35,1.06,1.06,0,0,1,0,.31,1.42,1.42,0,0,1-.12.27,1.78,1.78,0,0,1-.17.25l-0.2.25-0.6.7,0.17,0,0.16,0h0.68a0.15,0.15,0,0,1,.12,0,0.18,0.18,0,0,1,0,.12v0.31h-1.82v-0.17A0.33,0.33,0,0,1,162,170l0.81-.92,0.18-.22a1.38,1.38,0,0,0,.13-0.21,1,1,0,0,0,.08-0.21,0.94,0.94,0,0,0,0-.23,0.62,0.62,0,0,0,0-.19,0.39,0.39,0,0,0-.08-0.14,0.32,0.32,0,0,0-.12-0.09,0.42,0.42,0,0,0-.16,0,0.39,0.39,0,0,0-.27.09,0.5,0.5,0,0,0-.15.25,0.21,0.21,0,0,1-.06.11,0.15,0.15,0,0,1-.1,0h-0.06l-0.24,0a1.22,1.22,0,0,1,.11-0.38,0.89,0.89,0,0,1,.2-0.28,0.8,0.8,0,0,1,.27-0.17A1,1,0,0,1,162.86,167.28Z" transform="translate(-18.31 -13.01)"/><path class="c" d="M164.09,168.57a0.37,0.37,0,0,1,0-.12,0.29,0.29,0,0,1,.06-0.1,0.27,0.27,0,0,1,.09-0.07l0.11,0,0.11,0,0.09,0.07a0.32,0.32,0,0,1,.06.1,0.35,0.35,0,0,1,0,.12,0.36,0.36,0,0,1,0,.12,0.33,0.33,0,0,1-.06.1l-0.09.07-0.11,0-0.11,0-0.09-.07a0.3,0.3,0,0,1-.06-0.1A0.38,0.38,0,0,1,164.09,168.57Zm0,1.5a0.37,0.37,0,0,1,0-.12,0.31,0.31,0,0,1,.06-0.1l0.09-.07,0.11,0,0.11,0,0.09,0.07a0.34,0.34,0,0,1,.06.1,0.36,0.36,0,0,1,0,.25,0.33,0.33,0,0,1-.06.1,0.24,0.24,0,0,1-.09.07l-0.11,0-0.11,0a0.25,0.25,0,0,1-.09-0.07,0.3,0.3,0,0,1-.06-0.1A0.37,0.37,0,0,1,164.09,170.07Z" transform="translate(-18.31 -13.01)"/><path class="c" d="M166,167.28a0.86,0.86,0,0,1,.34.06,0.71,0.71,0,0,1,.26.18,0.78,0.78,0,0,1,.17.27,1,1,0,0,1,.06.35,1.06,1.06,0,0,1,0,.31,1.42,1.42,0,0,1-.12.27,1.78,1.78,0,0,1-.17.25l-0.2.25-0.6.7,0.17,0,0.16,0h0.68a0.15,0.15,0,0,1,.12,0,0.18,0.18,0,0,1,0,.12v0.31H165v-0.17a0.33,0.33,0,0,1,.08-0.21l0.81-.92,0.18-.22a1.38,1.38,0,0,0,.13-0.21,1,1,0,0,0,.08-0.21,0.94,0.94,0,0,0,0-.23,0.62,0.62,0,0,0,0-.19,0.39,0.39,0,0,0-.08-0.14,0.32,0.32,0,0,0-.12-0.09,0.42,0.42,0,0,0-.16,0,0.39,0.39,0,0,0-.27.09,0.5,0.5,0,0,0-.15.25,0.21,0.21,0,0,1-.06.11,0.15,0.15,0,0,1-.1,0H165.3l-0.24,0a1.22,1.22,0,0,1,.11-0.38,0.89,0.89,0,0,1,.2-0.28,0.8,0.8,0,0,1,.27-0.17A1,1,0,0,1,166,167.28Z" transform="translate(-18.31 -13.01)"/><path class="c" d="M168.13,167.28a0.88,0.88,0,0,1,.33.06,0.75,0.75,0,0,1,.25.17,0.7,0.7,0,0,1,.16.25,0.84,0.84,0,0,1,.06.31,1,1,0,0,1,0,.26,0.63,0.63,0,0,1-.08.19,0.53,0.53,0,0,1-.13.14,0.77,0.77,0,0,1-.18.09,0.7,0.7,0,0,1,.36.26,0.79,0.79,0,0,1,.12.44,1,1,0,0,1-.07.4,0.87,0.87,0,0,1-.2.29,0.83,0.83,0,0,1-.29.18,1,1,0,0,1-.35.06,1.06,1.06,0,0,1-.35-0.05,0.75,0.75,0,0,1-.26-0.16,1,1,0,0,1-.19-0.25,1.89,1.89,0,0,1-.13-0.34l0.2-.1,0.11,0,0.09,0a0.15,0.15,0,0,1,.06.07l0.07,0.15a0.58,0.58,0,0,0,.09.13,0.47,0.47,0,0,0,.13.09,0.43,0.43,0,0,0,.18,0,0.44,0.44,0,0,0,.2,0,0.46,0.46,0,0,0,.14-0.11,0.48,0.48,0,0,0,.09-0.15,0.57,0.57,0,0,0,0-.17,0.92,0.92,0,0,0,0-.2,0.32,0.32,0,0,0-.08-0.15,0.45,0.45,0,0,0-.18-0.1,1.16,1.16,0,0,0-.32,0v-0.37a1,1,0,0,0,.28,0,0.46,0.46,0,0,0,.17-0.09,0.32,0.32,0,0,0,.09-0.14,0.64,0.64,0,0,0,0-.18,0.46,0.46,0,0,0-.1-0.33,0.37,0.37,0,0,0-.28-0.11,0.38,0.38,0,0,0-.27.1,0.52,0.52,0,0,0-.15.25,0.22,0.22,0,0,1-.06.11,0.14,0.14,0,0,1-.1,0h-0.06l-0.24,0a1.26,1.26,0,0,1,.11-0.38,0.9,0.9,0,0,1,.2-0.28,0.81,0.81,0,0,1,.27-0.17A1,1,0,0,1,168.13,167.28Z" transform="translate(-18.31 -13.01)"/><path class="c" d="M247.82,172.39a0.66,0.66,0,0,1,0-.85,4.1,4.1,0,0,0,0-5.24,0.66,0.66,0,0,1,0-.85,0.47,0.47,0,0,1,.74,0,5.42,5.42,0,0,1,0,6.93,0.48,0.48,0,0,1-.74,0h0Z" transform="translate(-18.31 -13.01)"/><path class="c" d="M246.69,171.06a0.63,0.63,0,0,1,0-.8,2.09,2.09,0,0,0,0-2.67,0.63,0.63,0,0,1,0-.8,0.46,0.46,0,0,1,.7,0,3.35,3.35,0,0,1,0,4.28,0.45,0.45,0,0,1-.7,0h0Z" transform="translate(-18.31 -13.01)"/><polygon class="c" points="224.17 155.91 227.5 152.85 227.5 158.97 224.17 155.91"/><rect class="c" x="224.16" y="154.29" width="2.35" height="3.26"/><rect class="c" x="74.27" y="105" width="91.02" height="16.98"/><path class="f" d="M183.46,118.17v16.66H92.72V118.17h90.74m0.29-.33H92.44v17.31h91.31V117.84h0Z" transform="translate(-18.31 -13.01)"/><rect class="f" x="150.31" y="104.83" width="15.12" height="17.31"/><path class="c" d="M175,122.56a3.21,3.21,0,1,0,2.78,3.18A3,3,0,0,0,175,122.56Zm0,5.22a2.06,2.06,0,1,1,1.78-2A1.92,1.92,0,0,1,175,127.77Z" transform="translate(-18.31 -13.01)"/><path class="c" d="M178.76,130.73a0.27,0.27,0,0,1-.21-0.1l-2.12-2.57a0.37,0.37,0,0,1,0-.47,0.26,0.26,0,0,1,.41,0l2.12,2.57a0.37,0.37,0,0,1,0,.47,0.27,0.27,0,0,1-.2.09h0Z" transform="translate(-18.31 -13.01)"/><path class="c" d="M178.76,131.09a0.57,0.57,0,0,1-.44-0.22l-1.33-1.6a0.77,0.77,0,0,1,0-1,0.55,0.55,0,0,1,.86,0l1.33,1.6a0.77,0.77,0,0,1,0,1,0.57,0.57,0,0,1-.42.19h0Z" transform="translate(-18.31 -13.01)"/><path class="k" d="M100.34,125.09l0,0.06-0.06,0a0.14,0.14,0,0,1-.09,0L100,125l-0.19-.1a0.81,0.81,0,0,0-.53,0,0.54,0.54,0,0,0-.19.12,0.52,0.52,0,0,0-.12.18,0.65,0.65,0,0,0,0,.23,0.46,0.46,0,0,0,.07.26,0.6,0.6,0,0,0,.18.18,1.36,1.36,0,0,0,.25.13l0.29,0.11,0.29,0.13a1,1,0,0,1,.25.18,0.81,0.81,0,0,1,.18.27,1,1,0,0,1,.07.39,1.42,1.42,0,0,1-.07.46,1.1,1.1,0,0,1-.21.38,1,1,0,0,1-.35.25,1.12,1.12,0,0,1-.46.09,1.26,1.26,0,0,1-.58-0.13,1.39,1.39,0,0,1-.45-0.36l0.13-.24,0,0,0.06,0a0.17,0.17,0,0,1,.11.06l0.15,0.13a1.18,1.18,0,0,0,.22.13,0.79,0.79,0,0,0,.32.06,0.76,0.76,0,0,0,.28,0,0.6,0.6,0,0,0,.21-0.14,0.62,0.62,0,0,0,.13-0.22,0.8,0.8,0,0,0,0-.28,0.53,0.53,0,0,0-.07-0.28,0.61,0.61,0,0,0-.18-0.18,1.11,1.11,0,0,0-.25-0.12l-0.29-.1L99,126.37a0.93,0.93,0,0,1-.25-0.18,0.84,0.84,0,0,1-.18-0.28,1.23,1.23,0,0,1,0-.8,1,1,0,0,1,.2-0.33,0.94,0.94,0,0,1,.32-0.23,1,1,0,0,1,.43-0.09,1.22,1.22,0,0,1,.5.1,1.15,1.15,0,0,1,.39.29Z" transform="translate(-18.31 -13.01)"/><path class="k" d="M101.93,125.56a0.91,0.91,0,0,1,.38.08,0.86,0.86,0,0,1,.3.23,1.08,1.08,0,0,1,.2.37,1.62,1.62,0,0,1,.07.5,0.33,0.33,0,0,1,0,.15,0.08,0.08,0,0,1-.08,0h-1.54a1.66,1.66,0,0,0,.06.44,0.92,0.92,0,0,0,.15.31,0.59,0.59,0,0,0,.23.19,0.7,0.7,0,0,0,.3.06,0.76,0.76,0,0,0,.26,0l0.19-.09,0.13-.09a0.16,0.16,0,0,1,.09,0,0.09,0.09,0,0,1,.08,0l0.11,0.17a0.81,0.81,0,0,1-.18.18,1,1,0,0,1-.23.13l-0.25.08-0.25,0a1.05,1.05,0,0,1-.44-0.09,1,1,0,0,1-.35-0.27,1.3,1.3,0,0,1-.23-0.44,2,2,0,0,1-.08-0.61,1.74,1.74,0,0,1,.07-0.52,1.26,1.26,0,0,1,.21-0.42A1,1,0,0,1,101.93,125.56Zm0,0.34a0.58,0.58,0,0,0-.46.19,1,1,0,0,0-.21.54h1.26a1.1,1.1,0,0,0,0-.3,0.7,0.7,0,0,0-.11-0.23,0.52,0.52,0,0,0-.18-0.15A0.55,0.55,0,0,0,101.94,125.9Z" transform="translate(-18.31 -13.01)"/><path class="k" d="M105.11,128.25h-0.18l-0.1,0a0.12,0.12,0,0,1,0-.09l0-.25-0.18.17a1,1,0,0,1-.18.13l-0.2.08-0.24,0a0.72,0.72,0,0,1-.25,0,0.56,0.56,0,0,1-.2-0.13,0.63,0.63,0,0,1-.14-0.22,0.87,0.87,0,0,1-.05-0.31,0.64,0.64,0,0,1,.07-0.3,0.72,0.72,0,0,1,.24-0.26,1.47,1.47,0,0,1,.44-0.18,2.63,2.63,0,0,1,.66-0.07v-0.21a0.8,0.8,0,0,0-.12-0.47,0.39,0.39,0,0,0-.34-0.16,0.63,0.63,0,0,0-.25,0l-0.18.1-0.13.1a0.17,0.17,0,0,1-.11,0l-0.07,0,0-.06L103.4,126a1.34,1.34,0,0,1,.41-0.32,1.14,1.14,0,0,1,.49-0.1,0.77,0.77,0,0,1,.34.07,0.7,0.7,0,0,1,.25.2,0.88,0.88,0,0,1,.16.32,1.48,1.48,0,0,1,.05.41v1.69Zm-1.05-.28,0.2,0,0.17-.07,0.15-.11,0.14-.15v-0.55a2.53,2.53,0,0,0-.48,0,1.21,1.21,0,0,0-.32.11,0.47,0.47,0,0,0-.18.16,0.37,0.37,0,0,0-.06.2,0.51,0.51,0,0,0,0,.18,0.35,0.35,0,0,0,.08.12,0.31,0.31,0,0,0,.12.07Z" transform="translate(-18.31 -13.01)"/><path class="k" d="M105.73,128.25V125.6H106a0.12,0.12,0,0,1,.09,0,0.19,0.19,0,0,1,0,.1l0,0.41a1.21,1.21,0,0,1,.29-0.43,0.6,0.6,0,0,1,.41-0.16l0.17,0,0.14,0.07-0.05.35a0.07,0.07,0,0,1-.07.06l-0.1,0a0.54,0.54,0,0,0-.18,0,0.48,0.48,0,0,0-.35.14,1.09,1.09,0,0,0-.24.41v1.69h-0.41Z" transform="translate(-18.31 -13.01)"/><path class="k" d="M109.14,126.07l0,0-0.05,0a0.12,0.12,0,0,1-.07,0l-0.1-.07-0.15-.07a0.63,0.63,0,0,0-.22,0,0.63,0.63,0,0,0-.3.07,0.61,0.61,0,0,0-.22.2,0.94,0.94,0,0,0-.13.32,1.93,1.93,0,0,0,0,.84,1,1,0,0,0,.13.31,0.6,0.6,0,0,0,.21.19,0.58,0.58,0,0,0,.28.07,0.63,0.63,0,0,0,.24,0l0.16-.09,0.1-.09a0.12,0.12,0,0,1,.08,0,0.08,0.08,0,0,1,.08,0l0.11,0.17a0.88,0.88,0,0,1-.38.31,1.2,1.2,0,0,1-.48.1,0.9,0.9,0,0,1-.73-0.36,1.31,1.31,0,0,1-.22-0.43,1.94,1.94,0,0,1-.08-0.58,2,2,0,0,1,.07-0.55,1.27,1.27,0,0,1,.21-0.43,1,1,0,0,1,.34-0.28,1,1,0,0,1,.47-0.1,1,1,0,0,1,.43.09,1,1,0,0,1,.33.25Z" transform="translate(-18.31 -13.01)"/><path class="k" d="M109.7,128.25V124.4h0.41V126a1.28,1.28,0,0,1,.33-0.29,0.78,0.78,0,0,1,.42-0.11,0.75,0.75,0,0,1,.33.07,0.65,0.65,0,0,1,.24.2,0.93,0.93,0,0,1,.15.32,1.55,1.55,0,0,1,0,.41v1.69h-0.41v-1.69a0.79,0.79,0,0,0-.12-0.47,0.42,0.42,0,0,0-.37-0.17,0.62,0.62,0,0,0-.34.1,1.13,1.13,0,0,0-.29.27v1.95H109.7Z" transform="translate(-18.31 -13.01)"/><ellipse class="d" cx="67.42" cy="65.67" rx="19.56" ry="22.39"/><ellipse class="c" cx="214.08" cy="79.89" rx="19.56" ry="22.39"/><rect class="a" x="77.34" y="1.77" width="136.05" height="5.57"/><rect class="f" x="77.34" y="1.77" width="86.18" height="5.57"/><ellipse class="l" cx="163.53" cy="4.55" rx="3.79" ry="4.34"/><path class="j" d="M181.83,22.12a4.3,4.3,0,0,1-4-4.55,4,4,0,1,1,8,0,4.3,4.3,0,0,1-4,4.55h0Zm0-8.67a3.89,3.89,0,0,0-3.6,4.12,3.63,3.63,0,1,0,7.2,0,3.89,3.89,0,0,0-3.6-4.12h0Z" transform="translate(-18.31 -13.01)"/><rect class="f" x="150.48" y="21.18" width="27.54" height="22.99"/><polygon class="f" points="164.25 31.05 158.09 24 164.25 16.94 170.42 24 164.25 31.05"/><path class="c" d="M175,48.82h1.63V42.89q0-.27,0-0.54l-1.36,1.33-0.11.07-0.1,0a0.27,0.27,0,0,1-.14,0,0.28,0.28,0,0,1-.1-0.09l-0.3-.47,2.26-2.24h0.77v7.89h1.5v0.83H175V48.82Z" transform="translate(-18.31 -13.01)"/><path class="c" d="M182.82,40.85a2.46,2.46,0,0,1,.9.16,2,2,0,0,1,.72.48,2.25,2.25,0,0,1,.48.76,2.79,2.79,0,0,1,.17,1,3.06,3.06,0,0,1-.13.9,3.87,3.87,0,0,1-.35.79,5.83,5.83,0,0,1-.5.74l-0.6.73-2,2.34,0.43-.11a2.35,2.35,0,0,1,.42,0h2.55a0.31,0.31,0,0,1,.24.1,0.39,0.39,0,0,1,.09.27v0.66h-5.07V49.28a0.76,0.76,0,0,1,0-.24,0.66,0.66,0,0,1,.13-0.23l2.44-2.8c0.2-.24.39-0.46,0.55-0.68a5,5,0,0,0,.43-0.65A3.29,3.29,0,0,0,184,44a2.64,2.64,0,0,0,.1-0.72,1.93,1.93,0,0,0-.11-0.67,1.31,1.31,0,0,0-.29-0.48,1.21,1.21,0,0,0-.44-0.28,1.51,1.51,0,0,0-.54-0.09,1.43,1.43,0,0,0-.53.1,1.38,1.38,0,0,0-.43.27,1.61,1.61,0,0,0-.32.41,1.81,1.81,0,0,0-.18.52,0.5,0.5,0,0,1-.13.26,0.31,0.31,0,0,1-.22.08h-0.12l-0.49-.1a3.53,3.53,0,0,1,.29-1.05,2.48,2.48,0,0,1,.54-0.77,2.24,2.24,0,0,1,.75-0.47A2.54,2.54,0,0,1,182.82,40.85Z" transform="translate(-18.31 -13.01)"/><path class="c" d="M191.62,45.3a8.05,8.05,0,0,1-.22,2,4.42,4.42,0,0,1-.59,1.38,2.45,2.45,0,0,1-.88.81,2.34,2.34,0,0,1-2.17,0,2.46,2.46,0,0,1-.87-0.81,4.37,4.37,0,0,1-.58-1.38,9.32,9.32,0,0,1,0-4,4.4,4.4,0,0,1,.58-1.39,2.45,2.45,0,0,1,.87-0.82,2.34,2.34,0,0,1,2.17,0,2.44,2.44,0,0,1,.88.82,4.46,4.46,0,0,1,.59,1.39A8.09,8.09,0,0,1,191.62,45.3Zm-1,0a8.06,8.06,0,0,0-.15-1.67,3.64,3.64,0,0,0-.39-1.09,1.58,1.58,0,0,0-.57-0.59,1.36,1.36,0,0,0-1.35,0,1.56,1.56,0,0,0-.57.59,3.68,3.68,0,0,0-.39,1.09,9.6,9.6,0,0,0,0,3.34,3.68,3.68,0,0,0,.39,1.09,1.55,1.55,0,0,0,.57.59,1.36,1.36,0,0,0,1.35,0,1.58,1.58,0,0,0,.57-0.59,3.63,3.63,0,0,0,.39-1.09A8,8,0,0,0,190.64,45.3Z" transform="translate(-18.31 -13.01)"/><rect class="a" y="93.72" width="30.39" height="34.79"/><rect class="c" x="8.58" y="103.93" width="2.9" height="3.32"/><rect class="c" x="8.58" y="109.45" width="2.9" height="3.32"/><rect class="c" x="8.58" y="114.98" width="2.9" height="3.31"/><polygon class="c" points="19.98 103.93 19.04 103.93 16.71 103.93 14.36 103.93 13.81 103.93 13.81 107.24 14.36 107.24 16.71 107.24 19.04 107.24 19.98 107.24 21.94 107.24 21.94 103.93 19.98 103.93"/><polygon class="c" points="19.04 109.45 16.71 109.45 14.36 109.45 13.81 109.45 13.81 112.77 14.36 112.77 16.71 112.77 19.04 112.77 19.98 112.77 21.94 112.77 21.94 109.45 19.98 109.45 19.04 109.45"/><polygon class="c" points="19.04 114.98 16.71 114.98 14.36 114.98 13.81 114.98 13.81 118.29 14.36 118.29 16.71 118.29 19.04 118.29 19.98 118.29 21.94 118.29 21.94 114.98 19.98 114.98 19.04 114.98"/><polygon class="c" points="64.31 73.86 60.81 75.04 58.24 65.04 61.73 63.86 64.31 73.86"/><path class="c" d="M94.81,76.65a2.18,2.18,0,0,0-2-2.31s-4.65.13-4.63-1.09c0-.31,0-0.64,0-1s0.12-.85.14-1.22c0.19-2.65-.61-4.1-1.31-4.1-0.16,0-1.43.1-1.35,0.87a12.12,12.12,0,0,1-.25,3.79c-0.85,1.8-3.93,5.48-4.76,5.72l2.25,6.93s0.9-.51,3.37-0.25c1.47,0.15,2.87.27,3.65,0.38s2,0.05,2.27-.81A2.42,2.42,0,0,0,92.32,83a2,2,0,0,0,1.15-1.73,2.1,2.1,0,0,0,0-.45,2,2,0,0,0,.84-1.56,2.15,2.15,0,0,0-.14-0.89A2.45,2.45,0,0,0,94.81,76.65Z" transform="translate(-18.31 -13.01)"/><path class="g" d="M236.16,83a5,5,0,0,0-4.28,3.33,5,5,0,0,0-4.35-3.21c-2.79,0-5,3.1-5,6.83a8.8,8.8,0,0,0,.27,2.09c0.4,2.14,3.23,5.64,5.84,8.46,1.27,1.37,3.4,3.28,3.4,3.28a34.23,34.23,0,0,0,3.32-3.38c2.55-2.89,5.31-6.48,5.65-8.62a8.69,8.69,0,0,0,.23-2.1C241.23,85.91,238.94,82.92,236.16,83Z" transform="translate(-18.31 -13.01)"/><ellipse class="f" cx="54.54" cy="184.48" rx="24.55" ry="28.1"/><path class="g" d="M84.71,185.48h0a0.87,0.87,0,0,0-.82-0.2l-8.14,2.26h0l-6,1.66L65,183.68H63.78v7.86a1.84,1.84,0,0,0-.41,0,3.29,3.29,0,0,0-1.52.43c-1.18.63-2.32,2-2.11,3.25a1.42,1.42,0,0,0,.66,1l6.31,7.22a6.82,6.82,0,0,0-1,.43c-1.94,1-3.81,3.27-3.47,5.34a2.41,2.41,0,0,0,.68,1.34l0,0,13,14.83c11.46-1.61,20.46-12.25,21.43-25.51l-12.58-14.4v0Z" transform="translate(-18.31 -13.01)"/><path class="c" d="M85.05,201.43h0v-15.1a1.17,1.17,0,0,0-.37-0.87,0.87,0.87,0,0,0-.82-0.2l-14.23,4a1.09,1.09,0,0,0-.74,1.07V203.2a3.23,3.23,0,0,0-.67-0.08,5.39,5.39,0,0,0-2.5.71c-1.94,1-3.81,3.27-3.47,5.34a2.42,2.42,0,0,0,2.56,2.06,5.37,5.37,0,0,0,2.5-.71c1.87-1,3.69-3.13,3.49-5.14h0v-9.11l12.3-3.42v6.4a3.21,3.21,0,0,0-.67-0.08,5.37,5.37,0,0,0-2.5.71c-1.93,1-3.81,3.27-3.47,5.34a2.42,2.42,0,0,0,2.56,2.06,5.37,5.37,0,0,0,2.5-.71C83.43,205.56,85.24,203.44,85.05,201.43Z" transform="translate(-18.31 -13.01)"/><path class="m" d="M64.35,192.87c0.13,0.79-.67,1.92-1.79,2.52s-2.12.45-2.25-.34,0.67-1.92,1.79-2.52S64.23,192.08,64.35,192.87Z" transform="translate(-18.31 -13.01)"/><path class="c" d="M61.3,196.43a1.47,1.47,0,0,1-1.56-1.26c-0.2-1.26.94-2.62,2.11-3.25a3.29,3.29,0,0,1,1.52-.43,1.47,1.47,0,0,1,1.56,1.26c0.2,1.26-.94,2.61-2.11,3.25a3.28,3.28,0,0,1-1.52.43h0Z" transform="translate(-18.31 -13.01)"/><polygon class="c" points="46.65 179.85 45.47 179.85 45.47 170.66 46.65 170.66 46.65 179.85 46.65 179.85"/><ellipse class="c" cx="212.52" cy="198.68" rx="13.64" ry="15.61"/><path class="a" d="M230.83,228.57c-8.13,0-14.74-7.57-14.74-16.87s6.61-16.87,14.74-16.87,14.74,7.57,14.74,16.87-6.61,16.87-14.74,16.87h0Zm0-31.21c-6.91,0-12.53,6.43-12.53,14.34S223.92,226,230.83,226s12.53-6.43,12.53-14.34-5.62-14.34-12.53-14.34h0Z" transform="translate(-18.31 -13.01)"/><path class="a" d="M230.83,222.46c-5.18,0-9.4-4.83-9.4-10.76s4.22-10.76,9.4-10.76,9.4,4.83,9.4,10.76-4.22,10.76-9.4,10.76h0Zm0-19.91c-4.41,0-8,4.1-8,9.15s3.59,9.15,8,9.15,8-4.1,8-9.15-3.59-9.15-8-9.15h0Z" transform="translate(-18.31 -13.01)"/><path class="d" d="M256.08,228.74a3.54,3.54,0,0,0-3.3,2.82,7.76,7.76,0,0,0-1.68-.3v-2.7a3.47,3.47,0,1,0-6.88,0v2.67h-1.66V225a3.47,3.47,0,1,0-6.88,0v6.28a7.71,7.71,0,0,0-1.66.25v-18.7a3.47,3.47,0,1,0-6.88,0V241c0,0.15,0,.29,0,0.44v9.81l-1.59-1.81v-7.86c0-3.21-2.27-5.81-5.08-5.81h-1.69l-0.21,0v7.28h0v9.66l11.39,12.76a8.34,8.34,0,0,0,6.15,2.82h14.52c4.93,0,8.93-4.58,8.93-10.23v-25.4A3.71,3.71,0,0,0,256.08,228.74Z" transform="translate(-18.31 -13.01)"/><path class="e" d="M229.6,254V241.46c0-.15,0-0.29,0-0.44V212.81a4,4,0,0,1,2.2-3.66,3,3,0,0,0-1.24-.27,3.72,3.72,0,0,0-3.44,3.94V241c0,0.15,0,.29,0,0.44v9.67Z" transform="translate(-18.31 -13.01)"/><path class="a" d="M272.85,116.56H257.23l-0.62-2.22a1.09,1.09,0,0,0-.11-0.31h0l-0.09-.15-0.05-.06-0.07-.08-0.1-.09,0,0a0.87,0.87,0,0,0-.68-0.14l-2.19.21a1.07,1.07,0,0,0-.92,1.17,1,1,0,0,0,1,1.05l1.58-.15,3.86,13.89a2.91,2.91,0,0,0-.55,1.71,2.53,2.53,0,0,0,2.34,2.68,2.34,2.34,0,0,0,2.12-1.56h3.13A2.35,2.35,0,0,0,268,134a2.7,2.7,0,0,0,0-5.36,2.34,2.34,0,0,0-2.12,1.56h-3.13a2.35,2.35,0,0,0-2.13-1.58h0l-0.45-1.62H270.2c1.17,0,1.37-.91,2.12-2.43L275,119C276,116.76,274,116.56,272.85,116.56Z" transform="translate(-18.31 -13.01)"/></svg>