<svg xmlns="http://www.w3.org/2000/svg" viewBox="0 0 264.17 269.11"><defs><style>.a{fill:#ccc;}.b{fill:#e6e6e6;}.c{fill:#999;}.d{fill:#b3b3b3;}.e{fill:#d1ebfa;}.f{fill:#1895a4;}.g{fill:#19b0bf;}.h{fill:#e51f4d;}.i{fill:#f05661;}.j{fill:#0f303f;}.k{fill:none;stroke:#175079;stroke-width:8.44px;}.l{fill:#fff;}.m{fill:#2d5972;}.n{fill:#a7dae9;}.o{fill:#90c4d6;}</style></defs><title>seo</title><path class="a" d="M109.86,175.87c38.25,0,69.37-29.45,69.37-65.67s-31.12-65.67-69.37-65.67" transform="translate(-17.87 -12.24)"/><path class="b" d="M109.86,44.54c-38.25,0-69.38,29.47-69.38,65.67s31.13,65.67,69.38,65.67" transform="translate(-17.87 -12.24)"/><path class="c" d="M176.22,128.06c-0.92,0-2.1.43-2.12,0.72s-1.28.83-1.7,1a5.19,5.19,0,0,0-1.4,1.78c-0.17.4-1.2,0.28-1.59,0.44a2.22,2.22,0,0,0-1.16,1.11c0,0.36-.21.32-0.47-0.09l-0.5.5-0.59.62a5.16,5.16,0,0,1-1.86,2.39c-0.39.1-.46,1.88-0.46,2.58a3.21,3.21,0,0,0,.65,2l0.08,0.57,0.13,1.13a2,2,0,0,0,.7,1.8,10.31,10.31,0,0,0,2.57-.44,4.47,4.47,0,0,0,.94-0.36,63.6,63.6,0,0,0,7.14-15.68A1.65,1.65,0,0,0,176.22,128.06Z" transform="translate(-17.87 -12.24)"/><path class="c" d="M61.68,129.74a6.86,6.86,0,0,0,1.63,1.79,11.59,11.59,0,0,1,1.71,3,4.69,4.69,0,0,1,0,2,3.2,3.2,0,0,0,.28,1,15.22,15.22,0,0,0-.25,2.94c0.18,0.78-1,3.2-.94,4.4s0.6,2.78.83,2.66,0.31,1.09-.08,1.24-0.84,1.11-.62,1.15,0,1,0,1.37,0.4,2.88.47,3.5A18.14,18.14,0,0,0,66,157.46c0.2,0.52.4,1.49,0.47,1.64a2.93,2.93,0,0,0,.18.31,6.34,6.34,0,0,1,1,.43,6.44,6.44,0,0,0,2.2,0c0.49-.09,0-0.51-0.18-0.74a10.72,10.72,0,0,0-.66-1.45,2.42,2.42,0,0,1-.14-1.83c0.22-.32,1.11-0.81,1.21-1.08a2.79,2.79,0,0,0-.12-1.66c-0.24-.17.07-1.66-0.11-2.41s1.36-1.42,1.45-2,1.76-1.22,2.14-1.51a3.59,3.59,0,0,0,.53-2.35c-0.18-.36.61-0.65,1-0.65a4.79,4.79,0,0,0,.89-0.24,11.94,11.94,0,0,0,.79-0.92c0.23-.17.7-2,1.11-2.24a3,3,0,0,0,.76-1.68,5.16,5.16,0,0,1,.84-1.53,9.23,9.23,0,0,1,2-1.07c0.28-.11.7-2.47,0.81-3.33a22.08,22.08,0,0,1,.61-2.27,1.43,1.43,0,0,1,.62-0.61,14.35,14.35,0,0,1,.7-1.42,7.15,7.15,0,0,0,1.12-1.51,9.24,9.24,0,0,1,.29-1.32v-1.5c-0.27-.71-1.11-1.61-1.32-1.41s-1.18-.63-1.67-0.81a10,10,0,0,0-2-.32c-0.31,0-1.38-.83-1.86-1s-1.7-.36-1.93-0.5-0.52-1.86-1.51-2.42a10.58,10.58,0,0,1-2.91-2.37c-0.19-.48-2.09-1.5-2.67-1.8A2.47,2.47,0,0,0,68,113.6a9.46,9.46,0,0,1-1.22-1.23c-0.38-.29-1.51-0.54-1.56-0.27s-0.81.13-1-.1a1.31,1.31,0,0,0-1,.18c-0.27.08-1.22,1.45-1.65,1.78s-1-.31-1.24-0.42a3.32,3.32,0,0,0-1.67.4c-0.29.2-1-1.45-.82-2.2s-0.72-2.26-1.39-2.3-0.89-1.62-.75-2.2-1.21-.95-1.55-1a2.33,2.33,0,0,0-1.33,1.17c-0.15.39-3.22-.54-2.85-2.28a7.94,7.94,0,0,1,2.17-3.76,5.81,5.81,0,0,1,2.77-.08,0.75,0.75,0,0,0,.91-0.11,6.1,6.1,0,0,1,2.17.2c0.48,0.19,1.17,1.94,1.66,2.16s0.68-1.14.76-1.47a3.23,3.23,0,0,0-.36-1.4A4.76,4.76,0,0,1,61.6,98a3.36,3.36,0,0,0,1.48-1.76,1.21,1.21,0,0,1,.78-0.46c0.18-.08,0-1.81.27-2.19a9,9,0,0,1,2.16-1.34,1.59,1.59,0,0,0,.62-1.46c-0.17-.19,1.15-1.25,1.84-1.46s1.28,0.37,1.11.46c0.14-.07,1.08-0.53,1.48-0.78s0-1.1-.3-1.34a0.93,0.93,0,0,1,.24-1.25,1.19,1.19,0,0,0,.59-1.07c-0.1-.18,1.51.14,2.12-0.29s0.17,1-.28,1.62a0.67,0.67,0,0,0,.61,1,0.67,0.67,0,0,1,.65.48c0.06,0.16.68-.17,1.08,0s0.64-.52.68-0.84-1-1-1.12-1.36a22.86,22.86,0,0,1-.24-3.07,1.29,1.29,0,0,0-.88-1.06c-0.21.13-.63-1.18-1-1.47a1.6,1.6,0,0,1-.4-1.13c0-.21-1.14-1.35-1.41-1.88S71,76.9,71,77.13a1.44,1.44,0,0,1-1.16.25c-0.33,0-.6-1.23-0.6-1.69s-1.48-.53-1.73-0.9-1.21-.19-1.37-0.44A1.6,1.6,0,0,0,65,74c-0.18.09-.09,3.36-0.26,4.24a2.2,2.2,0,0,1-1.25,1.63c-0.28,0-.12.63,0.09,0.57s-0.56,1-.66,1.63S62.09,82,62,81.4,61.16,80,61,80.18s-0.62-.25-0.83-0.12-1.53-.73-2.07-1-0.84-1.82-1.14-2,0-.33-0.06-0.56A8.15,8.15,0,0,1,58.28,75,19.08,19.08,0,0,1,60.2,73a1.83,1.83,0,0,0,.73-1.26,12.48,12.48,0,0,1,2.5-.93c0.55-.18,1-1.63,1.1-2a1.69,1.69,0,0,0-.6-1.31c-0.26-.1.76-0.14,1.1,0s1.38-.29,1.8-0.09,1.25,0.68,1.85,1l-0.13,1.06-0.25,1.8c-1.59.63-2.05,1.71-1.5,1.69a13.67,13.67,0,0,1,3.83,1.53c0.72,0.49.94-.71,1.16-1.11a2.81,2.81,0,0,0,0-1.78c-0.18-.23.83-0.15,1.11,0.11s0.61-.27.83-0.36a4.93,4.93,0,0,0,.44-1.28c0.11-.2-0.48-0.4-0.49-0.65a4.31,4.31,0,0,0-1.54-.89,0.81,0.81,0,0,1-.28-1,2.22,2.22,0,0,0-.31-1.4,3.22,3.22,0,0,0-1.78-.57c-0.4,0-.81-0.88-1-1a6.47,6.47,0,0,0-2.15-.18c-0.38.11-1.08-1-1.72-.68s-1.3-.4-1.59-0.56-1.79,1.38-1.78,2.45a2.88,2.88,0,0,0,.82,2.14c0.24,0-.05,1-0.32,1.28s-0.89-.29-0.65-0.54-0.66-1.37-1-1.82a3.83,3.83,0,0,0-1.53-.82c-0.31.32-.61,0.64-0.91,1A2.25,2.25,0,0,1,58.06,68c-0.22.65-.8,0.75-0.83,0.47a0.8,0.8,0,0,0-.65-0.26A63.71,63.71,0,0,0,41,102.54a4,4,0,0,1,.82,1.1,3,3,0,0,0,1.45,1.07c0.19,0.11.26-1.11,0.12-1.42s0.26-.51.25-0.27a9,9,0,0,0,1.33,1.7c0.33,0.39.67,2.89,1,3.43s3.37,1.65,4.35,1.84a5.31,5.31,0,0,1,2.41,1.54,5.88,5.88,0,0,0,1.78.57c0.28,0.12,1,1,1.23,1.13a1.41,1.41,0,0,1,.5.81c0,0.13,1.73.75,2.15,1.19a1,1,0,0,0,1.24.13c0.13-.18.47,0.87,0.65,1.23a2.24,2.24,0,0,1,.08,1.4,18,18,0,0,1-.67,2.11,8.08,8.08,0,0,0-.78,3.19,3.79,3.79,0,0,0,1.29,1.59,0.37,0.37,0,0,1-.07.69c-0.28,0-.15,2.31.5,2.65A2.29,2.29,0,0,1,61.68,129.74Z" transform="translate(-17.87 -12.24)"/><path class="c" d="M69.85,89.74h0A0,0,0,1,0,69.85,89.74Z" transform="translate(-17.87 -12.24)"/><path class="c" d="M65.11,62a6.84,6.84,0,0,0,2.3-.57,1.27,1.27,0,0,0-.07-0.91h0.4c0.31,0,.84-1.64,1.17-2a17.84,17.84,0,0,1,2.68-1.2,18.56,18.56,0,0,1,1.82-1.27A1.67,1.67,0,0,0,74.26,55a5.14,5.14,0,0,1,1.81-1.16c0.52-.21.79-0.79,0.59-0.81s-3,1.42-5.68,2.85a69.66,69.66,0,0,0-8.54,6.48C63.28,62.27,64.56,62.13,65.11,62Z" transform="translate(-17.87 -12.24)"/><path class="c" d="M115.28,143.78c0.89-.5,2.39-2.61,2.89-3a6.86,6.86,0,0,0,1-2.39,2.39,2.39,0,0,1,1.13-1c0.28-.08,1.18-3.62,2-4.39s1.72-4.52,1.62-5.86a17.51,17.51,0,0,1,.69-4.53,6,6,0,0,1,1.49-1.94,42.31,42.31,0,0,0,2.83-3.86,8.16,8.16,0,0,0,1.08-3.55,1.59,1.59,0,0,0-1.69-.6,4.69,4.69,0,0,1-1.9.44c-0.4,0-1.32-2-1.89-2.44s-1.08-2.74-1.41-3.18a22,22,0,0,0-1.53-1.81,5,5,0,0,1-.4-1.82c-0.06-.34.55,0.22,0.66,0.71a23.18,23.18,0,0,0,2,3.14c0.45,0.67,1.65,2.79,2,3.45s3,0.33,3.84-.06a5.62,5.62,0,0,0,2-1.27,11.76,11.76,0,0,1,1.8-1.12c0.38-.29.72-1.81,1-2.05s-0.2-1.7-.49-2.13a2.52,2.52,0,0,0-2-.6c-0.28.17-.88-1-1.09-1.39s-1.27-.93-1.38-1.22a1,1,0,0,1,.45-0.84,8.78,8.78,0,0,1,2.68,1.84,14,14,0,0,1,1.31,2,3,3,0,0,0,2,.07,0.56,0.56,0,0,1,.87.13l0.48-.08,1.69-.25a3.14,3.14,0,0,1,1,1.69,1.59,1.59,0,0,0,.81.89c0.33,0.08.57,1.12,0.67,1.38s1.06,1.83,1.26,2.49a15.87,15.87,0,0,0,1.21,2.29,5.14,5.14,0,0,1,.36,1.62,1.23,1.23,0,0,0,1,.78c0.38,0,1.16-2.32,1.34-3.17a2.38,2.38,0,0,1,1-1.56,0.79,0.79,0,0,0,.31-0.66c0-.18,1-0.16,1.07-0.39a5.88,5.88,0,0,1,.72-2,14.86,14.86,0,0,1,2-1.14c0.43-.15,1.54.76,1.79,1.19a3.52,3.52,0,0,1,.38,1.67,1.49,1.49,0,0,0,1.18,1.09,1,1,0,0,1,.79,1,14.33,14.33,0,0,0,1,1.35,2.76,2.76,0,0,1,0,1.46,4.89,4.89,0,0,0,.08,1.74,17.07,17.07,0,0,0,2.61,2.61c0.68,0.53,1-1.08.65-1.58s-1.54-1.67-1.81-2a4.08,4.08,0,0,1-.22-2.14c0.1-.39,1,0.22,1.43.5a2.82,2.82,0,0,1,.91,1.12c0,0.21,2.46-1.08,2.54-2.49a13.66,13.66,0,0,1,1-3.35,0.86,0.86,0,0,0-.45-0.89c-0.21,0,.36-1.07,1-1.06s2.33-1.72,2.72-2.41a5.51,5.51,0,0,1,1.26-1.34,11.72,11.72,0,0,0,.73-2.39A6.22,6.22,0,0,0,168,97a2.84,2.84,0,0,1-.2-1.37c0.09-.17.7-0.36,0.77-0.52a3.58,3.58,0,0,0,.72-1.19c0-.32.44,0.41,0.76,0.67s0.67,1.93,1.07,2.12,2-1.77,1.82-3,0.47-2.88.86-3a8.38,8.38,0,0,0,1.57-1.86A65.5,65.5,0,0,0,158.33,63.3a1,1,0,0,1-.26,0l-0.59-.12c-1-.2-1.57-1.21-1.4-1.44a0.63,0.63,0,0,0,0-.44q-0.83-.71-1.7-1.4c-0.47,0-1,0-1.26,0a5.56,5.56,0,0,1-2.12-.64,0.89,0.89,0,0,0-1.06.6c-0.05.41-1.41,0.6-1.53,0.91a0.75,0.75,0,0,1-1,.16c-0.14-.17-1.4.42-2,0.51a11.19,11.19,0,0,0-2.07.68,3.17,3.17,0,0,0-1.05,1,3.06,3.06,0,0,1-1.17.78,1.18,1.18,0,0,0,.13,1.36,2.63,2.63,0,0,1-1-.34c-0.43-.2-0.89.47-1,0.7s-0.52-.14-0.5-0.47a0.93,0.93,0,0,0-1.18-.33c-0.14.27-.87-0.09-1.17-0.24s-1.61,1.14-2.09,1.6a6,6,0,0,1-3.23.65c-0.44-.17-0.86,1-0.49,1s-0.94-.06-1.66,0a12,12,0,0,0-3.31,1.21,0.54,0.54,0,0,1-.9-0.35,1.71,1.71,0,0,0-1-.6c-0.23-.08-0.7,1.48-1.11,1.78s-0.91-1.21-1.89-1.46-2.5-1.14-2.94-1.25A5.79,5.79,0,0,1,116.13,66a4.54,4.54,0,0,0-1.89-.46,6.27,6.27,0,0,0-2,1,3.38,3.38,0,0,1-1,.32c-0.17.1-1.64,1.45-2.2,1.88a16.83,16.83,0,0,0-1.88,2.68,1.36,1.36,0,0,1-1,.53,0.83,0.83,0,0,0-.35.67c0,0.18-1.68,1-1.85,1.73a15.84,15.84,0,0,0,.17,3c0,0.58.62,1.75,1.09,1.76s0.23,1,.1,1.27a2.15,2.15,0,0,0,.28.81,4,4,0,0,1-1.54.69A2.58,2.58,0,0,0,103,83c-0.07.25-1.18,0.43-1.55,0.76a7.52,7.52,0,0,1,.32-0.77,1.23,1.23,0,0,0-.26-1.19c-0.18-.14-0.26-2-0.54-2.46a8.68,8.68,0,0,0-1.16-1.24,1.08,1.08,0,0,1,.22-0.85c0.1-.21-0.94-0.33-1.23-0.18s-0.44,2-.56,2.56A1.66,1.66,0,0,0,98.9,81c0.17,0,.12,1-0.24,1s-0.7,1.39-.51,1.7a1.11,1.11,0,0,1-.48,1.06,7.87,7.87,0,0,0,2.15,0,1.57,1.57,0,0,1,1.24.35,5.6,5.6,0,0,0-1.65.54c-0.23.3-1.15,0.88-1.32,1.11s0.3,0.74.69,0.72,0.82,1.26,1.12,1.49a1,1,0,0,1,.06,1.09c-0.14.18-1.95-.13-2.63,0a3.3,3.3,0,0,0-1.61,2.05,12.08,12.08,0,0,0,.2,2.42c0.08,0.41,1.52.67,1.81,0.87a17.07,17.07,0,0,0,2,.13c0.28,0.13,1.21-1.32,1.39-2s1.65-1.91,2-2.37,1.89-.4,2.27-0.64,0.17,1.14.36,1.89,1.7,0.66,1.48,0,0.15-1,.21-0.76,1.52,0.81,1.79,1.21,0.19,1.24-.13,1.23-0.34.93,0,1,0.79-1.06,1.16-1.23a0.93,0.93,0,0,0,.49-0.95c-0.17-.05.31-0.7,0.52-0.49a7.93,7.93,0,0,0-1.4-2c-0.61-.59-0.18-0.33,1,0.58l0.8,1.06c0.15,0.19.36,0.77,0.5,1l0.18,0.31a6.8,6.8,0,0,1,.3,1.66,1.24,1.24,0,0,0,1,.79,0.6,0.6,0,0,1,.59.18,0.92,0.92,0,0,0,.63.73c0.38,0,.54-0.91.16-0.93s-0.32-1.35-.37-1.93a1.13,1.13,0,0,1,.4-1.06,5.63,5.63,0,0,1,0,1.47,3.81,3.81,0,0,0,.34,1.2l0.4,0.28,0.87,0.64c1.26-.35,2.94-0.08,2.88.16s0.93,0.3,1-.09,0.11,0,.11.28-0.82,1.33-1,1.82-3,.16-4.28.07-3.09.31-3.23,0.67-2.09-.81-3-1.17a5.59,5.59,0,0,1-1.78-1.81,2.7,2.7,0,0,1,.07-0.84c-0.08-.26-2.12-0.31-2.71-0.1s-3.65.51-4.37,0.81a4.11,4.11,0,0,1-2.15-.08c-0.34-.06-1.15.89-1.56,1.06s-0.93,1.51-1.16,3l-0.56,1-0.36.66c-1,.72-2.12,3.15-2.45,3.64s-0.59,4-.59,5.15A15.74,15.74,0,0,0,92.84,115a10.7,10.7,0,0,0,2.8,2.57A10.5,10.5,0,0,0,99,118a2,2,0,0,0,1.68-1.33l1,0.09,0.45,0c0,0.52,1.46.93,1.82,1.11a3.27,3.27,0,0,0,1.58,0c0.28-.08.6,2.33,0.4,3s0.5,3.14.7,3.88,1.09,2.75,1.19,3.47a32.73,32.73,0,0,1-.62,4c-0.1.85,1.11,3.2,1.43,4a12.85,12.85,0,0,1,.57,3c0,0.4,1.32,2.84,1.62,3.84S114.38,144.27,115.28,143.78Z" transform="translate(-17.87 -12.24)"/><path class="c" d="M172.46,114c0.09,0.18.92-.45,1.42-0.52s0.82-1.34.43-1.43-0.89-1.08-1.17-1.19a0.86,0.86,0,0,0-.81.8c0,0.39-.91.54-1.08,0.86s-0.17.55,0,.52A3.46,3.46,0,0,1,172.46,114Z" transform="translate(-17.87 -12.24)"/><path class="c" d="M171.44,120.86a1.24,1.24,0,0,0-.55-1.45c-0.52-.1-2,1.65-1.69,2.67s0.57,0.94.72,0.73a2,2,0,0,1,1.26.22c0.25,0.08.25-.17,0-0.54A1.78,1.78,0,0,1,171.44,120.86Z" transform="translate(-17.87 -12.24)"/><path class="c" d="M168.6,119.64c0.06-.45.15-1.85,0.23-2.13a2.28,2.28,0,0,0-1.24-1.23c-0.43-.14-1.84,2.73-2.84,3.24a2.63,2.63,0,0,0-1.1,2.67c0.27,0.4,2.36.62,2.73,0.92a1,1,0,0,0,1-.1c0.22-.05.15-0.18,0.07-0.24a11.56,11.56,0,0,0,.85-1.38C168.4,120.87,168.54,120.09,168.6,119.64Z" transform="translate(-17.87 -12.24)"/><path class="c" d="M162.9,124.42a1.62,1.62,0,0,0-1.78.44c-0.08.29,3,.75,4.06,1s1.67,0.35,1.43.19S163.69,124.7,162.9,124.42Z" transform="translate(-17.87 -12.24)"/><path class="c" d="M169.2,105.32c0.25-.33-0.35-1.87-0.64-1.52a2.13,2.13,0,0,0,0,1.56C168.66,105.66,169,105.65,169.2,105.32Z" transform="translate(-17.87 -12.24)"/><path class="c" d="M171.07,108.61c0.18-.4-0.22-0.84-0.9-1s-0.57,1.78-.28,2S170.89,109,171.07,108.61Z" transform="translate(-17.87 -12.24)"/><path class="c" d="M174.56,120.46c0.81,0.53,2.6.29,2.65-.74C176.42,119.22,174.49,119.31,174.56,120.46Z" transform="translate(-17.87 -12.24)"/><path class="c" d="M174.13,97a1,1,0,0,0-.41,1h-0.14c-0.27,0-.3,1,0,1.17s1-.78,1.31-1a2,2,0,0,1,1.17-.29,3.17,3.17,0,0,0,1.39-.39,1.12,1.12,0,0,0,.39-0.45c-0.15-.73-0.34-1.45-0.52-2.18-0.34.23-.71,0.48-0.89,0.63C176.06,95.82,174.57,96.74,174.13,97Z" transform="translate(-17.87 -12.24)"/><path class="c" d="M155.8,117.18h0C155.66,117.09,155.65,117.08,155.8,117.18Z" transform="translate(-17.87 -12.24)"/><path class="c" d="M160.79,121.59a8.27,8.27,0,0,0-2.13-2.34l-0.34-.52-0.36-.57a7.54,7.54,0,0,0-1.41-1.31c-0.08-.18-0.4.55-0.74,0.34l1.07,0.72c0.93,0.63,2.73,4.91,3.14,5.21S161.08,122.21,160.79,121.59Z" transform="translate(-17.87 -12.24)"/><path class="c" d="M146.47,114.68c-0.25.48,1.33,1.51,1.45,1.28a2.7,2.7,0,0,0-.48-1.68C147.16,114,146.72,114.2,146.47,114.68Z" transform="translate(-17.87 -12.24)"/><path class="c" d="M125.51,137.53a1.6,1.6,0,0,0,1.47.83,5.62,5.62,0,0,0,1.32-2.06,9.65,9.65,0,0,0,.22-1.62,1.42,1.42,0,0,1,.27-0.8,2.7,2.7,0,0,0,.44-1.16,31.26,31.26,0,0,0-.68-3.75c0-.48-0.58.24-0.73,0.72s-1.57,1.46-1.89,1.86a3.92,3.92,0,0,0-.54,2,2.87,2.87,0,0,1-.27,1.43A13.86,13.86,0,0,0,125.51,137.53Z" transform="translate(-17.87 -12.24)"/><path class="c" d="M74.37,156.19h1C75.49,155.22,74.32,155.38,74.37,156.19Z" transform="translate(-17.87 -12.24)"/><path class="c" d="M99.79,54.58a3.39,3.39,0,0,1-1.61-.33A4.29,4.29,0,0,0,96,54.09c-0.45.18-.14-1,0.48-1.16s0.09-1-.56-1-2.3-.23-2.68-0.15a5.07,5.07,0,0,1-1.41-.29,29.53,29.53,0,0,1-3.17.51,23.78,23.78,0,0,0-3.7.18,1.49,1.49,0,0,0-.79,1.36c0.07,0.33-2.21.32-2.93,0.33a24.74,24.74,0,0,0-5.54,1.3c-1,.52-1.78,1.85-1.45,1.87s-0.56.78-1.09,1a9.53,9.53,0,0,0-2.12.54c-0.3.28,0.32,0.48,0.44,0.67s0.48-.17.82,0a17.25,17.25,0,0,0,1.74.37c0.3,0.11-.94.34-1.53,0.37s-0.46,1.13,0,1.28a3.51,3.51,0,0,0,1.83.12c0.13-.19,1.45.2,2.06,0.27s1.05,1.48,1.24,1.79a4.27,4.27,0,0,1,.18,1.7,1.32,1.32,0,0,0,1.26.68c0.19-.2.14,0.49-0.3,0.45s-0.15,1.17.39,1.34,0.17,0.91-.14,1.14-0.14.93-.47,1.19,1.14,2.65,1.13,3.88a2.47,2.47,0,0,0,1.11,2.24,2.89,2.89,0,0,1,1.52.51c0.14,0.26.66-.18,0.86-0.39a9.91,9.91,0,0,0,1-1.31,30,30,0,0,0,1.16-3.26c0.1-.26,1.33-0.1,1.6-0.23a13,13,0,0,0,1.31-.91c0.23-.18,2-0.88,2.46-1.21s1.27-1.73,1.64-2-0.19-.21-0.66-0.5A0.46,0.46,0,0,1,91.56,66a5.82,5.82,0,0,1,2,.4c0.49,0.18,1.41-.45,1.06-0.7s-0.17-.24,0-0.13,0.35-.81.17-1,1.42-1.29,1.14-2.34,0.44-2.13.87-2.14,0.31-1.19-.21-1.3,0-.22.17-0.38A2.37,2.37,0,0,0,97.1,57c-0.12-.21.79-0.43,0.95-0.67a4.43,4.43,0,0,1,1.57-.79C100,55.47,100.19,54.54,99.79,54.58Z" transform="translate(-17.87 -12.24)"/><path class="c" d="M108.83,55.44c-0.5-.16-1.5.36-1.37,0.65S106.64,55.72,106,56s-0.84,1.42-.54,1.57a2,2,0,0,1,.53,1.18,2.32,2.32,0,0,0,1.61-.21c0.32-.25.28,0.88,0,1.19s0.12,0.92.47,1,0.83,0.84,1.2.83,1-1.34,1.13-1.83,1.36-.11,1.91.05,0.76-1.82.15-2.13-1.35-.15-1.6-0.37a2.14,2.14,0,0,0-1-.48C109.58,56.78,109.31,55.6,108.83,55.44Z" transform="translate(-17.87 -12.24)"/><path class="c" d="M113.67,56.39a3.49,3.49,0,0,0,2.32-.85c0.24-.21-2.71-0.78-3.84-0.82s-2,.11-2,0.32A11.36,11.36,0,0,0,113.67,56.39Z" transform="translate(-17.87 -12.24)"/><path class="c" d="M95.81,81.45c-0.26-.1-0.4.82-0.34,1.16s1,0.32,1.34.26a0.73,0.73,0,0,0,.67-0.66,3.68,3.68,0,0,0-.78-1.66C96.49,80.55,96.07,81.55,95.81,81.45Z" transform="translate(-17.87 -12.24)"/><path class="c" d="M98.71,70.8c-0.2-.34-1.74-0.29-2.11-0.32a4.46,4.46,0,0,1-1.74-.62c-0.21-.23-0.38.9-0.73,1s0.17,0.36.31,0.24,0,0.58-.17.82,1,0.41,1.16.77a1,1,0,0,0,1.08.53c0.46-.07,1.39-0.53,1.71-0.56S98.91,71.13,98.71,70.8Z" transform="translate(-17.87 -12.24)"/><path class="c" d="M131,62.47c0.53-.5,2.7-1.18,2.94-1.7a0.65,0.65,0,0,0-.37-0.94,0.87,0.87,0,0,0-.54.35c0,0.08-2.54.64-3.3,1a8.78,8.78,0,0,0-2,1.19,28.16,28.16,0,0,0-1,2.9c-0.19.27,0.82,1.22,1.28,1.48a1.76,1.76,0,0,0,1.24.08,5.82,5.82,0,0,0-.46-2.25C128.48,64,130.43,63,131,62.47Z" transform="translate(-17.87 -12.24)"/><path class="c" d="M128.29,56.38c0.82,0.77,1.27-.34,2.17-0.23C130.44,54.58,128.21,55.12,128.29,56.38Z" transform="translate(-17.87 -12.24)"/><path class="c" d="M144.22,56.67c0,0.29,2.27.52,2.94,0.41S147,56,146,56,144.25,56.39,144.22,56.67Z" transform="translate(-17.87 -12.24)"/><path class="c" d="M61.23,72.77a1,1,0,0,0,.43,1.3c0.46,0,1.19-1.6,1.76-1.28s0.94,0.46.85,0.29a16.24,16.24,0,0,0-1.9-1A2.24,2.24,0,0,0,61.23,72.77Z" transform="translate(-17.87 -12.24)"/><path class="c" d="M67.09,108.79a1.08,1.08,0,0,0,1.16-.14c0.16-.29.08-0.52-0.19-0.52A1.58,1.58,0,0,0,67.09,108.79Z" transform="translate(-17.87 -12.24)"/><path class="c" d="M62.64,107.24c0.47-.09.25,0.64,0.37,0.91a6.92,6.92,0,0,0,1.49.65c0.23,0.17.82-.33,1.28-0.28s-0.15-1.5-.92-1.46a2.59,2.59,0,0,1-1.56-.74,11.85,11.85,0,0,1-1.33-.78,11.46,11.46,0,0,0-2.88-.36,2.18,2.18,0,0,0-1.5.85c-0.11.21,1.05,0.36,1.38,0.19a3.47,3.47,0,0,1,2.2.54A1.79,1.79,0,0,0,62.64,107.24Z" transform="translate(-17.87 -12.24)"/><path class="c" d="M60.55,108.79a2.82,2.82,0,0,0,1.25.08c0.24,0,.24-0.15,0-0.35A1.34,1.34,0,0,0,60.55,108.79Z" transform="translate(-17.87 -12.24)"/><path class="c" d="M61.26,103.88c-0.26-.1-0.47.29-0.47,0.48a0.33,0.33,0,0,0,.32.33C61.29,104.69,61.52,104,61.26,103.88Z" transform="translate(-17.87 -12.24)"/><path class="c" d="M63.38,104a1,1,0,0,0-.65-0.33,0.67,0.67,0,0,0-.2.7C62.55,104.79,63.46,104.21,63.38,104Z" transform="translate(-17.87 -12.24)"/><path class="c" d="M64.9,106.25c0.41-.19.46-0.65,0.21-0.62a6.14,6.14,0,0,1-1-.76c-0.26-.1-0.48.41-0.48,0.64a0.29,0.29,0,0,0,.33.33C64.19,105.79,64.49,106.43,64.9,106.25Z" transform="translate(-17.87 -12.24)"/><path class="c" d="M177.6,121.25a2.16,2.16,0,0,1-1.36,0c-0.13-.19-0.34.39-0.56,0.48s-0.1.6,0.23,0.44a4.91,4.91,0,0,1,2,.87c0.15-.73.29-1.47,0.42-2.22C178,121,177.73,121.19,177.6,121.25Z" transform="translate(-17.87 -12.24)"/><path class="d" d="M61.68,129.74a6.86,6.86,0,0,0,1.63,1.79,11.59,11.59,0,0,1,1.71,3,4.69,4.69,0,0,1,0,2,3.2,3.2,0,0,0,.28,1,15.22,15.22,0,0,0-.25,2.94c0.18,0.78-1,3.2-.94,4.4s0.6,2.78.83,2.66,0.31,1.09-.08,1.24-0.84,1.11-.62,1.15,0,1,0,1.37,0.4,2.88.47,3.5A18.14,18.14,0,0,0,66,157.46c0.2,0.52.4,1.49,0.47,1.64a2.93,2.93,0,0,0,.18.31,6.34,6.34,0,0,1,1,.43,6.44,6.44,0,0,0,2.2,0c0.49-.09,0-0.51-0.18-0.74a10.72,10.72,0,0,0-.66-1.45,2.42,2.42,0,0,1-.14-1.83c0.22-.32,1.11-0.81,1.21-1.08a2.79,2.79,0,0,0-.12-1.66c-0.24-.17.07-1.66-0.11-2.41s1.36-1.42,1.45-2,1.76-1.22,2.14-1.51a3.59,3.59,0,0,0,.53-2.35c-0.18-.36.61-0.65,1-0.65a4.79,4.79,0,0,0,.89-0.24,11.94,11.94,0,0,0,.79-0.92c0.23-.17.7-2,1.11-2.24a3,3,0,0,0,.76-1.68,5.16,5.16,0,0,1,.84-1.53,9.23,9.23,0,0,1,2-1.07c0.28-.11.7-2.47,0.81-3.33a22.08,22.08,0,0,1,.61-2.27,1.43,1.43,0,0,1,.62-0.61,14.35,14.35,0,0,1,.7-1.42,7.15,7.15,0,0,0,1.12-1.51,9.24,9.24,0,0,1,.29-1.32v-1.5c-0.27-.71-1.11-1.61-1.32-1.41s-1.18-.63-1.67-0.81a10,10,0,0,0-2-.32c-0.31,0-1.38-.83-1.86-1s-1.7-.36-1.93-0.5-0.52-1.86-1.51-2.42a10.58,10.58,0,0,1-2.91-2.37c-0.19-.48-2.09-1.5-2.67-1.8A2.47,2.47,0,0,0,68,113.6a9.46,9.46,0,0,1-1.22-1.23c-0.38-.29-1.51-0.54-1.56-0.27s-0.81.13-1-.1a1.31,1.31,0,0,0-1,.18c-0.27.08-1.22,1.45-1.65,1.78s-1-.31-1.24-0.42a3.32,3.32,0,0,0-1.67.4c-0.29.2-1-1.45-.82-2.2s-0.72-2.26-1.39-2.3-0.89-1.62-.75-2.2-1.21-.95-1.55-1a2.33,2.33,0,0,0-1.33,1.17c-0.15.39-3.22-.54-2.85-2.28a7.94,7.94,0,0,1,2.17-3.76,5.81,5.81,0,0,1,2.77-.08,0.75,0.75,0,0,0,.91-0.11,6.1,6.1,0,0,1,2.17.2c0.48,0.19,1.17,1.94,1.66,2.16s0.68-1.14.76-1.47a3.23,3.23,0,0,0-.36-1.4A4.76,4.76,0,0,1,61.6,98a3.36,3.36,0,0,0,1.48-1.76,1.21,1.21,0,0,1,.78-0.46c0.18-.08,0-1.81.27-2.19a9,9,0,0,1,2.16-1.34,1.59,1.59,0,0,0,.62-1.46c-0.17-.19,1.15-1.25,1.84-1.46s1.28,0.37,1.11.46c0.14-.07,1.08-0.53,1.48-0.78s0-1.1-.3-1.34a0.93,0.93,0,0,1,.24-1.25,1.19,1.19,0,0,0,.59-1.07c-0.1-.18,1.51.14,2.12-0.29s0.17,1-.28,1.62a0.67,0.67,0,0,0,.61,1,0.67,0.67,0,0,1,.65.48c0.06,0.16.68-.17,1.08,0s0.64-.52.68-0.84-1-1-1.12-1.36a22.86,22.86,0,0,1-.24-3.07,1.29,1.29,0,0,0-.88-1.06c-0.21.13-.63-1.18-1-1.47a1.6,1.6,0,0,1-.4-1.13c0-.21-1.14-1.35-1.41-1.88S71,76.9,71,77.13a1.44,1.44,0,0,1-1.16.25c-0.33,0-.6-1.23-0.6-1.69s-1.48-.53-1.73-0.9-1.21-.19-1.37-0.44A1.6,1.6,0,0,0,65,74c-0.18.09-.09,3.36-0.26,4.24a2.2,2.2,0,0,1-1.25,1.63c-0.28,0-.12.63,0.09,0.57s-0.56,1-.66,1.63S62.09,82,62,81.4,61.16,80,61,80.18s-0.62-.25-0.83-0.12-1.53-.73-2.07-1-0.84-1.82-1.14-2,0-.33-0.06-0.56A8.15,8.15,0,0,1,58.28,75,19.08,19.08,0,0,1,60.2,73a1.83,1.83,0,0,0,.73-1.26,12.48,12.48,0,0,1,2.5-.93c0.55-.18,1-1.63,1.1-2a1.69,1.69,0,0,0-.6-1.31c-0.26-.1.76-0.14,1.1,0s1.38-.29,1.8-0.09,1.25,0.68,1.85,1l-0.13,1.06-0.25,1.8c-1.59.63-2.05,1.71-1.5,1.69a13.67,13.67,0,0,1,3.83,1.53c0.72,0.49.94-.71,1.16-1.11a2.81,2.81,0,0,0,0-1.78c-0.18-.23.83-0.15,1.11,0.11s0.61-.27.83-0.36a4.93,4.93,0,0,0,.44-1.28c0.11-.2-0.48-0.4-0.49-0.65a4.31,4.31,0,0,0-1.54-.89,0.81,0.81,0,0,1-.28-1,2.22,2.22,0,0,0-.31-1.4,3.22,3.22,0,0,0-1.78-.57c-0.4,0-.81-0.88-1-1a6.47,6.47,0,0,0-2.15-.18c-0.38.11-1.08-1-1.72-.68s-1.3-.4-1.59-0.56-1.79,1.38-1.78,2.45a2.88,2.88,0,0,0,.82,2.14c0.24,0-.05,1-0.32,1.28s-0.89-.29-0.65-0.54-0.66-1.37-1-1.82a3.83,3.83,0,0,0-1.53-.82c-0.31.32-.61,0.64-0.91,1A2.25,2.25,0,0,1,58.06,68c-0.22.65-.8,0.75-0.83,0.47a0.8,0.8,0,0,0-.65-0.26c-0.32.35-.62,0.72-0.92,1.08s-0.6.71-.89,1.07-0.63.78-.93,1.17-0.54.71-.81,1.07c-0.4.53-.78,1.07-1.16,1.61s-0.72,1-1.07,1.58-0.58.92-.87,1.38l-0.59,1c-0.28.49-.57,1-0.84,1.47L48,80.47c-0.63,1.16-1.23,2.34-1.77,3.54l-0.05.1c-0.27.59-.53,1.19-0.78,1.79l-0.28.68c-0.25.62-.5,1.24-0.73,1.86,0,0.1-.07.21-0.11,0.31a61.78,61.78,0,0,0-2,6.41c0,0.14-.07.29-0.11,0.44A62.4,62.4,0,0,0,41,102.49a0.14,0.14,0,0,1,0,.05,4,4,0,0,1,.82,1.1,3,3,0,0,0,1.45,1.07c0.19,0.11.26-1.11,0.12-1.42s0.26-.51.25-0.27a9,9,0,0,0,1.33,1.7c0.33,0.39.67,2.89,1,3.43s3.37,1.65,4.35,1.84a5.31,5.31,0,0,1,2.41,1.54,5.88,5.88,0,0,0,1.78.57c0.28,0.12,1,1,1.23,1.13a1.41,1.41,0,0,1,.5.81c0,0.13,1.73.75,2.15,1.19a1,1,0,0,0,1.24.13c0.13-.18.47,0.87,0.65,1.23a2.24,2.24,0,0,1,.08,1.4,18,18,0,0,1-.67,2.11,8.08,8.08,0,0,0-.78,3.19,3.79,3.79,0,0,0,1.29,1.59,0.37,0.37,0,0,1-.07.69c-0.28,0-.15,2.31.5,2.65A2.29,2.29,0,0,1,61.68,129.74Z" transform="translate(-17.87 -12.24)"/><line class="d" x1="51.98" y1="77.5" x2="51.97" y2="77.5"/><path class="d" d="M65.11,62a6.84,6.84,0,0,0,2.3-.57,1.27,1.27,0,0,0-.07-0.91h0.4c0.31,0,.84-1.64,1.17-2a17.84,17.84,0,0,1,2.68-1.2,18.56,18.56,0,0,1,1.82-1.27A1.67,1.67,0,0,0,74.26,55a5.14,5.14,0,0,1,1.81-1.16c0.52-.21.79-0.79,0.59-0.81s-3,1.42-5.68,2.85l-0.07.05c-0.76.49-1.51,1-2.24,1.51-0.5.35-1,.72-1.49,1.08l-0.77.58c-0.58.45-1.16,0.91-1.73,1.37l-0.36.3c-0.63.52-1.25,1.05-1.87,1.59C63.28,62.27,64.56,62.13,65.11,62Z" transform="translate(-17.87 -12.24)"/><path class="d" d="M109,94.11c-0.32,0-.34.93,0,1s0.56-.53.85-0.92V90.56l-0.08-.08c-0.41-.39-0.35-0.4.08-0.1V67.92c-0.35.31-.69,0.6-0.91,0.77a16.83,16.83,0,0,0-1.88,2.68,1.36,1.36,0,0,1-1,.53,0.83,0.83,0,0,0-.35.67c0,0.18-1.68,1-1.85,1.73a15.84,15.84,0,0,0,.17,3c0,0.58.62,1.75,1.09,1.76s0.23,1,.1,1.27a2.15,2.15,0,0,0,.28.81,4,4,0,0,1-1.54.69A2.58,2.58,0,0,0,103,83c-0.07.25-1.18,0.43-1.55,0.76a7.52,7.52,0,0,1,.32-0.77,1.23,1.23,0,0,0-.26-1.19c-0.18-.14-0.26-2-0.54-2.46a8.68,8.68,0,0,0-1.16-1.24,1.08,1.08,0,0,1,.22-0.85c0.1-.21-0.94-0.33-1.23-0.18s-0.44,2-.56,2.56A1.66,1.66,0,0,0,98.9,81c0.17,0,.12,1-0.24,1s-0.7,1.39-.51,1.7a1.11,1.11,0,0,1-.48,1.06,7.87,7.87,0,0,0,2.15,0,1.57,1.57,0,0,1,1.24.35,5.6,5.6,0,0,0-1.65.54c-0.23.3-1.15,0.88-1.32,1.11s0.3,0.74.69,0.72,0.82,1.26,1.12,1.49a1,1,0,0,1,.06,1.09c-0.14.18-1.95-.13-2.63,0a3.3,3.3,0,0,0-1.61,2.05,12.08,12.08,0,0,0,.2,2.42c0.08,0.41,1.52.67,1.81,0.87a17.07,17.07,0,0,0,2,.13c0.28,0.13,1.21-1.32,1.39-2s1.65-1.91,2-2.37,1.89-.4,2.27-0.64,0.17,1.14.36,1.89,1.7,0.66,1.48,0,0.15-1,.21-0.76,1.52,0.81,1.79,1.21S109.32,94.12,109,94.11Z" transform="translate(-17.87 -12.24)"/><path class="d" d="M109.86,98.55c-0.3-.15-0.57-0.28-0.79-0.37a5.59,5.59,0,0,1-1.78-1.81,2.7,2.7,0,0,1,.07-0.84c-0.08-.26-2.12-0.31-2.71-0.1s-3.65.51-4.37,0.81a4.11,4.11,0,0,1-2.15-.08c-0.34-.06-1.15.89-1.56,1.06s-0.93,1.51-1.16,3l-0.56,1-0.36.66c-1,.72-2.12,3.15-2.45,3.64s-0.59,4-.59,5.15A15.74,15.74,0,0,0,92.84,115a10.7,10.7,0,0,0,2.8,2.57A10.5,10.5,0,0,0,99,118a2,2,0,0,0,1.68-1.33l1,0.09,0.45,0c0,0.52,1.46.93,1.82,1.11a3.27,3.27,0,0,0,1.58,0c0.28-.08.6,2.33,0.4,3s0.5,3.14.7,3.88,1.09,2.75,1.19,3.47a32.73,32.73,0,0,1-.62,4c-0.1.85,1.11,3.2,1.43,4a12.85,12.85,0,0,1,.57,3,9.21,9.21,0,0,0,.72,1.73V98.55Z" transform="translate(-17.87 -12.24)"/><path class="d" d="M74.37,156.19h1C75.49,155.22,74.32,155.38,74.37,156.19Z" transform="translate(-17.87 -12.24)"/><path class="d" d="M93.58,66.4c0.49,0.18,1.41-.45,1.06-0.7s-0.17-.24,0-0.13,0.35-.81.17-1,1.42-1.29,1.14-2.34,0.44-2.13.87-2.14,0.31-1.19-.21-1.3,0-.22.17-0.38A2.37,2.37,0,0,0,97.1,57c-0.12-.21.79-0.43,0.95-0.67a4.43,4.43,0,0,1,1.57-.79c0.36-.08.57-1,0.17-1a3.39,3.39,0,0,1-1.61-.33A4.29,4.29,0,0,0,96,54.09c-0.45.18-.14-1,0.48-1.16s0.09-1-.56-1-2.3-.23-2.68-0.15a5.07,5.07,0,0,1-1.41-.29,29.53,29.53,0,0,1-3.17.51,23.78,23.78,0,0,0-3.7.18,1.49,1.49,0,0,0-.79,1.36c0.07,0.33-2.21.32-2.93,0.33a24.74,24.74,0,0,0-5.54,1.3c-1,.52-1.78,1.85-1.45,1.87s-0.56.78-1.09,1a9.53,9.53,0,0,0-2.12.54c-0.3.28,0.32,0.48,0.44,0.67s0.48-.17.82,0a17.25,17.25,0,0,0,1.74.37c0.3,0.11-.94.34-1.53,0.37s-0.46,1.13,0,1.28a3.51,3.51,0,0,0,1.83.12c0.13-.19,1.45.2,2.06,0.27s1.05,1.48,1.24,1.79a4.27,4.27,0,0,1,.18,1.7,1.32,1.32,0,0,0,1.26.68c0.19-.2.14,0.49-0.3,0.45s-0.15,1.17.39,1.34,0.17,0.91-.14,1.14-0.14.93-.47,1.19,1.14,2.65,1.13,3.88a2.47,2.47,0,0,0,1.11,2.24,2.89,2.89,0,0,1,1.52.51c0.14,0.26.66-.18,0.86-0.39a9.91,9.91,0,0,0,1-1.31,30,30,0,0,0,1.16-3.26c0.1-.26,1.33-0.1,1.6-0.23a13,13,0,0,0,1.31-.91c0.23-.18,2-0.88,2.46-1.21s1.27-1.73,1.64-2-0.19-.21-0.66-0.5A0.46,0.46,0,0,1,91.56,66,5.82,5.82,0,0,1,93.58,66.4Z" transform="translate(-17.87 -12.24)"/><path class="d" d="M108.83,55.44c-0.5-.16-1.5.36-1.37,0.65S106.64,55.72,106,56s-0.84,1.42-.54,1.57a2,2,0,0,1,.53,1.18,2.32,2.32,0,0,0,1.61-.21c0.32-.25.28,0.88,0,1.19s0.12,0.92.47,1,0.83,0.84,1.2.83a1.38,1.38,0,0,0,.65-0.74v-4h0C109.58,56.78,109.31,55.6,108.83,55.44Z" transform="translate(-17.87 -12.24)"/><path class="d" d="M96.82,82.87a0.73,0.73,0,0,0,.67-0.66,3.68,3.68,0,0,0-.78-1.66c-0.22,0-.63,1-0.89.9s-0.4.82-.34,1.16S96.43,82.94,96.82,82.87Z" transform="translate(-17.87 -12.24)"/><path class="d" d="M95.43,72.74a1,1,0,0,0,1.08.53c0.46-.07,1.39-0.53,1.71-0.56s0.68-1.58.48-1.91S97,70.5,96.6,70.48a4.46,4.46,0,0,1-1.74-.62c-0.21-.23-0.38.9-0.73,1s0.17,0.36.31,0.24,0,0.58-.17.82S95.3,72.37,95.43,72.74Z" transform="translate(-17.87 -12.24)"/><path class="d" d="M61.23,72.77a1,1,0,0,0,.43,1.3c0.46,0,1.19-1.6,1.76-1.28s0.94,0.46.85,0.29a16.24,16.24,0,0,0-1.9-1A2.24,2.24,0,0,0,61.23,72.77Z" transform="translate(-17.87 -12.24)"/><path class="d" d="M67.09,108.79a1.08,1.08,0,0,0,1.16-.14c0.16-.29.08-0.52-0.19-0.52A1.58,1.58,0,0,0,67.09,108.79Z" transform="translate(-17.87 -12.24)"/><path class="d" d="M62.64,107.24c0.47-.09.25,0.64,0.37,0.91a6.92,6.92,0,0,0,1.49.65c0.23,0.17.82-.33,1.28-0.28s-0.15-1.5-.92-1.46a2.59,2.59,0,0,1-1.56-.74,11.85,11.85,0,0,1-1.33-.78,11.46,11.46,0,0,0-2.88-.36,2.18,2.18,0,0,0-1.5.85c-0.11.21,1.05,0.36,1.38,0.19a3.47,3.47,0,0,1,2.2.54A1.79,1.79,0,0,0,62.64,107.24Z" transform="translate(-17.87 -12.24)"/><path class="d" d="M60.55,108.79a2.82,2.82,0,0,0,1.25.08c0.24,0,.24-0.15,0-0.35A1.34,1.34,0,0,0,60.55,108.79Z" transform="translate(-17.87 -12.24)"/><path class="d" d="M61.26,103.88c-0.26-.1-0.47.29-0.47,0.48a0.33,0.33,0,0,0,.32.33C61.29,104.69,61.52,104,61.26,103.88Z" transform="translate(-17.87 -12.24)"/><path class="d" d="M63.38,104a1,1,0,0,0-.65-0.33,0.67,0.67,0,0,0-.2.7C62.55,104.79,63.46,104.21,63.38,104Z" transform="translate(-17.87 -12.24)"/><path class="d" d="M64.9,106.25c0.41-.19.46-0.65,0.21-0.62a6.14,6.14,0,0,1-1-.76c-0.26-.1-0.48.41-0.48,0.64a0.29,0.29,0,0,0,.33.33C64.19,105.79,64.49,106.43,64.9,106.25Z" transform="translate(-17.87 -12.24)"/><path class="e" d="M67.41,60.71c-0.07-.07-0.36.13-0.23,0.25S67.52,60.85,67.41,60.71Z" transform="translate(-17.87 -12.24)"/><path class="e" d="M75.1,82.39c-0.06-.08-0.35.13-0.24,0.26S75.22,82.52,75.1,82.39Z" transform="translate(-17.87 -12.24)"/><polygon class="b" points="95.69 6.3 94.38 13.81 86.45 15.04 94.38 16.27 95.69 23.77 96.98 16.27 104.91 15.04 96.98 13.81 95.69 6.3"/><polygon class="b" points="21.73 34.37 20.42 41.87 12.5 43.1 20.42 44.33 21.73 51.84 23.02 44.33 30.95 43.1 23.02 41.87 21.73 34.37"/><polygon class="b" points="121.09 0 120.41 3.9 116.3 4.54 120.41 5.18 121.09 9.08 121.77 5.18 125.88 4.54 121.77 3.9 121.09 0"/><polygon class="b" points="9.23 136.31 7.92 143.81 0 145.04 7.92 146.27 9.23 153.78 10.53 146.27 18.45 145.04 10.53 143.81 9.23 136.31"/><polygon class="b" points="35.45 151.71 34.77 155.61 30.65 156.25 34.77 156.89 35.45 160.79 36.12 156.89 40.24 156.25 36.12 155.61 35.45 151.71"/><polygon class="b" points="160.43 41.27 159.12 48.78 151.19 50.01 159.12 51.24 160.43 58.74 161.72 51.24 169.65 50.01 161.72 48.78 160.43 41.27"/><polygon class="b" points="161.27 152.5 160.59 156.4 156.48 157.04 160.59 157.69 161.27 161.58 161.94 157.69 166.06 157.04 161.94 156.4 161.27 152.5"/><polygon class="b" points="7.95 73.6 7.28 77.49 3.16 78.13 7.28 78.78 7.95 82.67 8.63 78.78 12.74 78.13 8.63 77.49 7.95 73.6"/><path class="f" d="M263.42,177.22h-10a65.23,65.23,0,0,0-2.9-9.7l8.37-4.57a3.88,3.88,0,0,0,1.54-5.44L252,143.76a4.35,4.35,0,0,0-5.74-1.46l-8.69,4.76a66.9,66.9,0,0,0-7.62-7l4.84-7.93a3.87,3.87,0,0,0-1.54-5.43l-14.52-8a4.35,4.35,0,0,0-5.73,1.47l-5,8.23a69.63,69.63,0,0,0-10.32-2.47v-9.17a4.09,4.09,0,0,0-4.2-4H176.73a4.1,4.1,0,0,0-4.22,4v9.49A72.72,72.72,0,0,0,162.28,129l-4.82-7.92a4.35,4.35,0,0,0-5.76-1.45l-14.53,8a3.85,3.85,0,0,0-1.52,5.42l5,8.24a66.07,66.07,0,0,0-7.42,7.2l-8.37-4.58a4.35,4.35,0,0,0-5.74,1.46L110.73,159a3.87,3.87,0,0,0,1.55,5.42l8.68,4.75a61.35,61.35,0,0,0-2.6,9.76h-9.68a4.09,4.09,0,0,0-4.2,4v15.88a4.09,4.09,0,0,0,4.21,4h10a60.9,60.9,0,0,0,2.88,9.71l-8.37,4.57a3.86,3.86,0,0,0-1.53,5.42l8.38,13.76a4.35,4.35,0,0,0,5.74,1.45l8.7-4.75a66.5,66.5,0,0,0,7.61,7l-4.84,7.94a3.85,3.85,0,0,0,1.53,5.42l14.55,7.94a4.31,4.31,0,0,0,5.71-1.45l5-8.22a70.4,70.4,0,0,0,10.31,2.46v9.19a4.07,4.07,0,0,0,4.19,4h16.79a4.09,4.09,0,0,0,4.2-4v-9.49A73.79,73.79,0,0,0,209.81,251l4.84,7.92a4.3,4.3,0,0,0,5.72,1.45l14.54-7.94a3.86,3.86,0,0,0,1.52-5.43l-5-8.23a65.29,65.29,0,0,0,7.43-7.2l8.39,4.58a4.33,4.33,0,0,0,5.73-1.46L261.35,221a3.87,3.87,0,0,0-1.52-5.42l-8.7-4.75a61.81,61.81,0,0,0,2.62-9.75h9.68a4.09,4.09,0,0,0,4.19-4V181.18A4.08,4.08,0,0,0,263.42,177.22Zm-77.38,54c-24,0-43.52-18.46-43.52-41.21S162,148.8,186,148.8s43.52,18.45,43.52,41.21S210.09,231.22,186,231.22Z" transform="translate(-17.87 -12.24)"/><path class="g" d="M184.59,231.17c-23.36-.72-42.06-18.87-42.06-41.16s18.7-40.44,42.06-41.17V112.78h-7.85a4.1,4.1,0,0,0-4.22,4v9.49A72.72,72.72,0,0,0,162.28,129l-4.82-7.92a4.35,4.35,0,0,0-5.76-1.45l-14.53,8a3.85,3.85,0,0,0-1.52,5.42l5,8.24a66.07,66.07,0,0,0-7.42,7.2l-8.37-4.58a4.35,4.35,0,0,0-5.74,1.46L110.73,159a3.87,3.87,0,0,0,1.55,5.42l8.68,4.75a61.35,61.35,0,0,0-2.6,9.76h-9.68a4.09,4.09,0,0,0-4.2,4v15.88a4.09,4.09,0,0,0,4.21,4h10a60.9,60.9,0,0,0,2.88,9.71l-8.37,4.57a3.86,3.86,0,0,0-1.53,5.42l8.38,13.76a4.35,4.35,0,0,0,5.74,1.45l8.7-4.75a66.5,66.5,0,0,0,7.61,7l-4.84,7.94a3.85,3.85,0,0,0,1.53,5.42l14.55,7.94a4.31,4.31,0,0,0,5.71-1.45l5-8.22a70.4,70.4,0,0,0,10.31,2.46v9.19a4.07,4.07,0,0,0,4.19,4h6V231.17Z" transform="translate(-17.87 -12.24)"/><path class="f" d="M186,139.84c-29.27,0-53,22.46-53,50.18s23.72,50.17,53,50.17,53-22.47,53-50.17S215.32,139.84,186,139.84Zm0,91.38c-24,0-43.52-18.46-43.52-41.21S162,148.8,186,148.8s43.52,18.45,43.52,41.21S210.09,231.22,186,231.22Z" transform="translate(-17.87 -12.24)"/><path class="g" d="M186,139.84c-0.49,0-1,0-1.46,0v9c0.48,0,1,0,1.46,0,24,0,43.52,18.45,43.52,41.21S210.09,231.22,186,231.22c-0.5,0-1,0-1.46,0v9c0.48,0,1,0,1.46,0,29.27,0,53-22.47,53-50.17S215.32,139.84,186,139.84Z" transform="translate(-17.87 -12.24)"/><path class="h" d="M277.11,276.68a0.07,0.07,0,0,0,0,0,17.55,17.55,0,0,1-23.84,0l-51.4-48.89a15.37,15.37,0,0,1,0-22.54l0,0a17.53,17.53,0,0,1,23.84,0l51.4,48.89a15.37,15.37,0,0,1,0,22.54h0Z" transform="translate(-17.87 -12.24)"/><path class="i" d="M269.77,276.37a6.79,6.79,0,0,1-9.21,0l-51.4-48.89a6,6,0,0,1,0-8.72,6.8,6.8,0,0,1,9.24,0l51.4,48.89a6,6,0,0,1,0,8.73Z" transform="translate(-17.87 -12.24)"/><path class="j" d="M101.59,110.09h0A67.39,67.39,0,0,1,148.3,91.8c36.32,0.06,65.82,28.09,65.76,62.47a60.35,60.35,0,0,1-19.31,44,68.44,68.44,0,0,1-93.22-.08,60,60,0,0,1,.07-88.07h0Z" transform="translate(-17.87 -12.24)"/><path class="k" d="M189.19,193" transform="translate(-17.87 -12.24)"/><path class="e" d="M113.52,121.37a44.93,44.93,0,0,0-14.38,32.72c-0.05,25.59,21.9,46.44,48.93,46.48a50.16,50.16,0,0,0,34.77-13.62h0a44.58,44.58,0,0,0,0-65.53,50.9,50.9,0,0,0-69.36-.05h0Z" transform="translate(-17.87 -12.24)"/><path class="l" d="M182.88,121.42a50.1,50.1,0,0,0-34.63-13.67,51.84,51.84,0,0,0-10.81,1.13,49.11,49.11,0,0,0-14.53,9.53,44.88,44.88,0,0,0-14.37,32.72c-0.05,25.58,21.9,46.44,48.93,46.49a52.05,52.05,0,0,0,10.82-1.13,49.43,49.43,0,0,0,14.55-9.54h0A44.58,44.58,0,0,0,182.88,121.42Z" transform="translate(-17.87 -12.24)"/><path class="j" d="M208.5,211.76a8.76,8.76,0,0,1-11.92,0l-10.5-10.26a7.68,7.68,0,0,1,0-11.27h0a8.76,8.76,0,0,1,11.92,0l10.5,10.26a7.68,7.68,0,0,1,0,11.27h0Z" transform="translate(-17.87 -12.24)"/><path class="m" d="M148.29,95.32c34.27,0.06,62.1,26.51,62,58.94a57,57,0,0,1-18.23,41.49A63.47,63.47,0,0,1,148.19,213h-0.12v-7.85h0.1a55,55,0,0,0,38-15,49.34,49.34,0,0,0,15.8-36c0.05-28.1-24.06-51-53.76-51.07l0-7.85h0Z" transform="translate(-17.87 -12.24)"/><path class="n" d="M142.52,190c0-22.76,19.49-41.21,43.52-41.21a45.68,45.68,0,0,1,11,1.37,45,45,0,0,0-14.12-28.75,49.36,49.36,0,0,0-9.53-7,3.8,3.8,0,0,0-.83,2.36v9.49A72.72,72.72,0,0,0,162.28,129l-4.82-7.92a4.35,4.35,0,0,0-5.76-1.45l-14.53,8a3.85,3.85,0,0,0-1.52,5.42l5,8.24a66.07,66.07,0,0,0-7.42,7.2l-8.37-4.58a4.35,4.35,0,0,0-5.74,1.46L110.73,159a3.87,3.87,0,0,0,1.55,5.42l8.68,4.75a61.35,61.35,0,0,0-2.6,9.76h-9.68a4.4,4.4,0,0,0-1.67.33,49.46,49.46,0,0,0,37,21.06A39.15,39.15,0,0,1,142.52,190Z" transform="translate(-17.87 -12.24)"/><path class="o" d="M118.36,179v0h-9.68a4.4,4.4,0,0,0-1.67.33c0.41,0.6.85,1.19,1.29,1.77,0.3,0.39.61,0.78,0.92,1.16q1.07,1.33,2.24,2.58c0.34,0.36.68,0.72,1,1.08,0.72,0.72,1.47,1.43,2.24,2.11,0.47,0.42.94,0.83,1.43,1.23s1.14,0.91,1.73,1.34,0.91,0.65,1.37,1q1.35,0.94,2.77,1.79c0.45,0.27.91,0.54,1.37,0.79,1,0.54,2,1.05,3,1.53,0.51,0.24,1,.48,1.54.71,0.68,0.3,1.38.58,2.08,0.85s1.3,0.46,2,.68c1,0.33,2,.62,3,0.89l1.57,0.38c1.16,0.27,2.33.5,3.52,0.69,0.55,0.09,1.09.17,1.65,0.24,0.77,0.1,1.54.19,2.32,0.25a41.66,41.66,0,0,1-1-4.86A49.18,49.18,0,0,1,118.36,179Z" transform="translate(-17.87 -12.24)"/><path class="j" d="M240.35,84.48H237a21.65,21.65,0,0,0-1-3.25l2.8-1.53a1.3,1.3,0,0,0,.51-1.82l-2.81-4.6a1.45,1.45,0,0,0-1.92-.49l-2.91,1.59A22.22,22.22,0,0,0,229.16,72l1.62-2.66a1.3,1.3,0,0,0-.52-1.82L225.4,64.9a1.45,1.45,0,0,0-1.91.49l-1.68,2.75a23.92,23.92,0,0,0-3.45-.83V64.25A1.37,1.37,0,0,0,217,62.92h-5.61a1.37,1.37,0,0,0-1.41,1.33v3.17a24.42,24.42,0,0,0-3.43.92l-1.61-2.65A1.46,1.46,0,0,0,203,65.2l-4.86,2.66a1.29,1.29,0,0,0-.51,1.81l1.68,2.76a22.25,22.25,0,0,0-2.48,2.41L194,73.31a1.45,1.45,0,0,0-1.92.49l-2.81,4.6a1.29,1.29,0,0,0,.52,1.81l2.9,1.59a21,21,0,0,0-.87,3.27h-3.24a1.37,1.37,0,0,0-1.41,1.33V91.7A1.37,1.37,0,0,0,188.58,93h3.35a20.61,20.61,0,0,0,1,3.25l-2.8,1.53a1.29,1.29,0,0,0-.51,1.81l2.8,4.6a1.45,1.45,0,0,0,1.92.49l2.91-1.59a22.37,22.37,0,0,0,2.55,2.35l-1.62,2.66a1.29,1.29,0,0,0,.51,1.81l4.86,2.66a1.45,1.45,0,0,0,1.91-.49l1.68-2.75a23.38,23.38,0,0,0,3.45.82v3.07a1.36,1.36,0,0,0,1.4,1.33h5.62a1.37,1.37,0,0,0,1.4-1.33v-3.17a24.82,24.82,0,0,0,3.43-.91l1.62,2.64a1.44,1.44,0,0,0,1.92.49l4.86-2.66a1.29,1.29,0,0,0,.51-1.82l-1.68-2.75a22.16,22.16,0,0,0,2.49-2.41l2.81,1.53a1.45,1.45,0,0,0,1.92-.49l2.81-4.6a1.29,1.29,0,0,0-.51-1.81l-2.91-1.59a21,21,0,0,0,.87-3.26h3.24a1.37,1.37,0,0,0,1.4-1.33V85.8A1.36,1.36,0,0,0,240.35,84.48ZM214.46,99.36c-6.18,0-11.2-4.75-11.2-10.6s5-10.6,11.2-10.6,11.2,4.74,11.2,10.6S220.65,99.36,214.46,99.36Z" transform="translate(-17.87 -12.24)"/><path class="m" d="M214,102.53c-7.82-.24-14.07-6.31-14.07-13.77S206.16,75.22,214,75V62.92h-2.63a1.37,1.37,0,0,0-1.41,1.33v3.17a24.42,24.42,0,0,0-3.43.92l-1.61-2.65A1.46,1.46,0,0,0,203,65.2l-4.86,2.66a1.29,1.29,0,0,0-.51,1.81l1.68,2.76a22.25,22.25,0,0,0-2.48,2.41L194,73.31a1.45,1.45,0,0,0-1.92.49l-2.81,4.6a1.29,1.29,0,0,0,.52,1.81l2.9,1.59a21,21,0,0,0-.87,3.27h-3.24a1.37,1.37,0,0,0-1.41,1.33V91.7A1.37,1.37,0,0,0,188.58,93h3.35a20.61,20.61,0,0,0,1,3.25l-2.8,1.53a1.29,1.29,0,0,0-.51,1.81l2.8,4.6a1.45,1.45,0,0,0,1.92.49l2.91-1.59a22.37,22.37,0,0,0,2.55,2.35l-1.62,2.66a1.29,1.29,0,0,0,.51,1.81l4.86,2.66a1.45,1.45,0,0,0,1.91-.49l1.68-2.75a23.38,23.38,0,0,0,3.45.82v3.07a1.36,1.36,0,0,0,1.4,1.33h2V102.53Z" transform="translate(-17.87 -12.24)"/><path class="j" d="M214.46,70c-11,0-19.84,8.41-19.84,18.79s8.89,18.78,19.84,18.78,19.84-8.41,19.84-18.78S225.42,70,214.46,70Zm0,34.21c-9,0-16.3-6.91-16.3-15.43s7.3-15.43,16.3-15.43,16.29,6.91,16.29,15.43S223.46,104.18,214.46,104.18Z" transform="translate(-17.87 -12.24)"/><path class="m" d="M214.46,70h-0.54v3.36l0.54,0c9,0,16.29,6.91,16.29,15.43s-7.29,15.43-16.29,15.43h-0.54v3.36h0.54c11,0,19.84-8.41,19.84-18.78S225.42,70,214.46,70Z" transform="translate(-17.87 -12.24)"/><path class="f" d="M232,90c0-.17,0-0.33,0-0.5s0-.52,0-0.79,0-.53,0-0.79,0-.33,0-0.49,0-.17,0-0.26c-0.82-8.49-8.38-15.16-17.56-15.16-8.92,0-16.3,6.3-17.47,14.44v0.06c0,0.21-.06.43-0.08,0.65s0,0.2,0,.31,0,0.3,0,.44,0,0.53,0,.79,0,0.53,0,.79,0,0.3,0,.45,0,0.2,0,.31,0,0.43.08,0.64V91c1.17,8.14,8.55,14.44,17.47,14.44,9.18,0,16.74-6.67,17.56-15.17C232,90.2,232,90.12,232,90Z" transform="translate(-17.87 -12.24)"/><path class="g" d="M214.46,72.06c-8.92,0-16.3,6.3-17.47,14.44v0.06c0,0.21-.06.43-0.08,0.65s0,0.2,0,.31,0,0.3,0,.44,0,0.53,0,.79,0,0.53,0,.79,0,0.3,0,.45,0,0.2,0,.31,0,0.43.08,0.64V91c1.17,8.14,8.55,14.44,17.47,14.44" transform="translate(-17.87 -12.24)"/><path class="e" d="M228.84,95.57l-0.18.34-0.18.3-0.2.33-0.19.3-0.22.32-0.21.29-0.23.31-0.22.28-0.24.29-0.24.27-0.26.29-0.25.25-0.28.27-0.25.24-0.29.26-0.26.23-0.31.25-0.27.22-0.32.24L224,101l-0.33.22-0.3.19-0.35.21-0.3.17-0.36.2-0.31.16-0.38.18-0.31.15-0.39.17-0.31.13-0.4.15-0.32.11-0.07,0a16.83,16.83,0,0,0,4.36-8h4.88l-0.07.15Z" transform="translate(-17.87 -12.24)"/><path class="e" d="M220.22,74.54l0.4,0.15,0.31,0.13L221.33,75l0.31,0.15L222,75.32l0.31,0.16,0.36,0.2,0.3,0.18,0.35,0.21,0.3,0.19L224,76.47l0.29,0.2,0.32,0.23,0.27,0.22,0.31,0.25,0.26,0.23,0.29,0.26,0.25,0.24,0.28,0.27,0.25,0.25,0.26,0.29L227,79.19l0.24,0.29,0.22,0.28,0.23,0.31,0.21,0.29,0.22,0.32L228.28,81l0.2,0.33,0.18,0.3,0.18,0.34L229,82.25l0.07,0.15h-4.88a16.83,16.83,0,0,0-4.36-8l0.07,0Z" transform="translate(-17.87 -12.24)"/><path class="e" d="M223.44,88.76a24.86,24.86,0,0,1-.48,4.89h-7.72V83.86H223A24.88,24.88,0,0,1,223.44,88.76Z" transform="translate(-17.87 -12.24)"/><path class="e" d="M222.61,95.11c-1.32,4.85-4.1,8.33-7.38,8.81V95.11h7.38Z" transform="translate(-17.87 -12.24)"/><path class="e" d="M215.23,82.39V73.59c3.28,0.48,6.06,4,7.38,8.81h-7.38Z" transform="translate(-17.87 -12.24)"/><path class="e" d="M230.53,89.45c0,0.12,0,.23,0,0.35s0,0.2,0,.29,0,0.34-.06.51v0a14.73,14.73,0,0,1-.74,3h-5.16a26,26,0,0,0,0-9.78h5.16a14.54,14.54,0,0,1,.74,3,0.14,0.14,0,0,1,0,0c0,0.17,0,.34.06,0.5s0,0.2,0,.3,0,0.23,0,.34,0,0.46,0,.69S230.54,89.22,230.53,89.45Z" transform="translate(-17.87 -12.24)"/><path class="l" d="M198.5,90.66s0-.07,0-0.1,0-.31-0.05-0.46,0-.22,0-0.33,0-.22,0-0.33,0-.46,0-0.69,0-.46,0-0.7,0-.21,0-0.32,0-.22,0-0.33,0-.31.05-0.46,0-.07,0-0.1a14.77,14.77,0,0,1,.74-3h5.15a26.28,26.28,0,0,0,0,9.78h-5.15A14.82,14.82,0,0,1,198.5,90.66Z" transform="translate(-17.87 -12.24)"/><path class="l" d="M205.48,88.76a24.74,24.74,0,0,1,.48-4.89h7.73v9.78H206A25,25,0,0,1,205.48,88.76Z" transform="translate(-17.87 -12.24)"/><path class="l" d="M213.69,73.59v8.81h-7.38C207.63,77.54,210.41,74.07,213.69,73.59Z" transform="translate(-17.87 -12.24)"/><path class="l" d="M213.69,95.11v8.81c-3.28-.48-6.06-4-7.38-8.81h7.38Z" transform="translate(-17.87 -12.24)"/><path class="l" d="M209.09,74.4a16.85,16.85,0,0,0-4.36,8h-4.88A15.87,15.87,0,0,1,209.09,74.4Z" transform="translate(-17.87 -12.24)"/><path class="l" d="M199.85,95.11h4.88a16.86,16.86,0,0,0,4.36,8A15.89,15.89,0,0,1,199.85,95.11Z" transform="translate(-17.87 -12.24)"/><path class="i" d="M232.88,115.37h1.59a1,1,0,0,0,.89-0.6l0.3-.68a0.91,0.91,0,0,0-.17-1L234.36,112a0.61,0.61,0,0,1,0-.9l1.74-1.65a0.71,0.71,0,0,1,1,0l1.13,1.07a1,1,0,0,0,1.08.17l0.72-.28a1,1,0,0,0,.64-0.84V108a0.66,0.66,0,0,1,.67-0.64h2.47a0.66,0.66,0,0,1,.67.64v1.51a1,1,0,0,0,.64.84l0.72,0.28a1,1,0,0,0,1.08-.17l1.13-1.07a0.7,0.7,0,0,1,.95,0l1.75,1.65a0.61,0.61,0,0,1,0,.9l-1.13,1.07a0.92,0.92,0,0,0-.17,1l0.3,0.68a1,1,0,0,0,.89.6h1.6a0.66,0.66,0,0,1,.67.64v2.34a0.66,0.66,0,0,1-.67.64h-1.6a1,1,0,0,0-.89.6l-0.3.68a0.92,0.92,0,0,0,.17,1l1.13,1.07a0.61,0.61,0,0,1,0,.9l-1.75,1.65a0.7,0.7,0,0,1-.95,0l-1.13-1.07a1,1,0,0,0-1.08-.17l-0.72.28a1,1,0,0,0-.64.84v1.51a0.66,0.66,0,0,1-.67.64h-2.47a0.66,0.66,0,0,1-.67-0.64V124.8A1,1,0,0,0,240,124l-0.72-.28a1,1,0,0,0-1.08.17l-1.13,1.07a0.71,0.71,0,0,1-1,0l-1.74-1.65a0.61,0.61,0,0,1,0-.9l1.13-1.07a0.91,0.91,0,0,0,.17-1l-0.3-.68a1,1,0,0,0-.89-0.6h-1.59a0.66,0.66,0,0,1-.67-0.64V116A0.66,0.66,0,0,1,232.88,115.37Zm9.65,4.88a3.08,3.08,0,1,0-3.25-3.08A3.17,3.17,0,0,0,242.53,120.26Z" transform="translate(-17.87 -12.24)"/><path class="h" d="M242.49,120.25h0a3.08,3.08,0,1,0,0-6.16h0v-6.69h1.27a0.66,0.66,0,0,1,.67.64v1.51a1,1,0,0,0,.64.84l0.72,0.28a1,1,0,0,0,1.08-.17l1.13-1.07a0.7,0.7,0,0,1,.95,0l1.75,1.65a0.61,0.61,0,0,1,0,.9l-1.13,1.07a0.92,0.92,0,0,0-.17,1l0.3,0.68a1,1,0,0,0,.89.6h1.6a0.66,0.66,0,0,1,.67.64v2.34a0.66,0.66,0,0,1-.67.64h-1.6a1,1,0,0,0-.89.6l-0.3.68a0.92,0.92,0,0,0,.17,1l1.13,1.07a0.61,0.61,0,0,1,0,.9l-1.75,1.65a0.7,0.7,0,0,1-.95,0l-1.13-1.07a1,1,0,0,0-1.08-.17l-0.72.28a1,1,0,0,0-.64.84v1.51a0.66,0.66,0,0,1-.67.64h-1.27v-6.69Z" transform="translate(-17.87 -12.24)"/><path class="i" d="M54.88,213.42a13.11,13.11,0,0,0,3,4.87L47.67,231.78A29.25,29.25,0,0,1,37.4,215.26Z" transform="translate(-17.87 -12.24)"/><path class="m" d="M65.3,196.32a13.53,13.53,0,0,0-11,11.74L36.8,209.88c0-.19,0-0.38,0-0.56,0-15.49,12.55-28.2,28.53-29.57v16.57Z" transform="translate(-17.87 -12.24)"/><path class="l" d="M78.49,200.41a14.12,14.12,0,0,0-7.5-4.1V179.75A31.7,31.7,0,0,1,93.59,192Z" transform="translate(-17.87 -12.24)"/><path class="g" d="M62.49,221.45a14.49,14.49,0,0,0,5.66,1.14c7.75,0,14-5.94,14-13.28a12.7,12.7,0,0,0-.8-4.25l15.12-8.43a28.17,28.17,0,0,1,3,12.67c0,16.41-14.05,29.71-31.38,29.71a32.44,32.44,0,0,1-15.84-4.1Z" transform="translate(-17.87 -12.24)"/><path class="i" d="M80.74,262.22a0.18,0.18,0,0,1-.2.12H68.91a0.18,0.18,0,0,1-.21-0.12v-8.9a0.18,0.18,0,0,1,.21-0.12H80.54a0.18,0.18,0,0,1,.2.12v8.9Z" transform="translate(-17.87 -12.24)"/><path class="g" d="M97.17,262.22a0.18,0.18,0,0,1-.21.12H85.33a0.18,0.18,0,0,1-.2-0.12V243.45a0.18,0.18,0,0,1,.2-0.12H97a0.18,0.18,0,0,1,.21.12v18.77Z" transform="translate(-17.87 -12.24)"/><path class="l" d="M113.58,262.22a0.18,0.18,0,0,1-.21.12H101.75a0.18,0.18,0,0,1-.2-0.12V233.14a0.18,0.18,0,0,1,.2-0.12h11.63a0.18,0.18,0,0,1,.21.12v29.08Z" transform="translate(-17.87 -12.24)"/><path class="a" d="M275.84,91.12h-2a1.25,1.25,0,0,1-1.12-.76l-0.38-.86a1.15,1.15,0,0,1,.22-1.29L274,86.85a0.78,0.78,0,0,0,0-1.14l-2.21-2.09a0.89,0.89,0,0,0-1.2,0L269.12,85a1.32,1.32,0,0,1-1.37.21l-0.91-.36a1.2,1.2,0,0,1-.81-1.06V81.85a0.83,0.83,0,0,0-.85-0.81h-3.12a0.83,0.83,0,0,0-.85.81v1.91a1.2,1.2,0,0,1-.81,1.06l-0.91.36a1.32,1.32,0,0,1-1.36-.21l-1.43-1.35a0.89,0.89,0,0,0-1.2,0l-2.21,2.09a0.77,0.77,0,0,0,0,1.14l1.43,1.35a1.14,1.14,0,0,1,.22,1.29l-0.37.86a1.27,1.27,0,0,1-1.12.76h-2a0.83,0.83,0,0,0-.85.81v3a0.83,0.83,0,0,0,.85.81h2a1.27,1.27,0,0,1,1.12.76l0.37,0.86a1.14,1.14,0,0,1-.22,1.29L253.29,100a0.77,0.77,0,0,0,0,1.14l2.21,2.09a0.89,0.89,0,0,0,1.2,0l1.43-1.35a1.31,1.31,0,0,1,1.36-.21L260.4,102a1.2,1.2,0,0,1,.81,1.06V105a0.83,0.83,0,0,0,.85.81h3.12A0.83,0.83,0,0,0,266,105v-1.91a1.2,1.2,0,0,1,.81-1.06l0.91-.36a1.32,1.32,0,0,1,1.37.21l1.43,1.35a0.89,0.89,0,0,0,1.2,0L274,101.1a0.78,0.78,0,0,0,0-1.14l-1.43-1.35a1.15,1.15,0,0,1-.22-1.29l0.38-.86a1.25,1.25,0,0,1,1.12-.76h2a0.83,0.83,0,0,0,.85-0.81v-3A0.83,0.83,0,0,0,275.84,91.12ZM263.63,97.3a3.9,3.9,0,1,1,4.12-3.9A4,4,0,0,1,263.63,97.3Z" transform="translate(-17.87 -12.24)"/></svg>